%TF.GenerationSoftware,KiCad,Pcbnew,8.0.7*%
%TF.CreationDate,2025-02-01T19:51:36+00:00*%
%TF.ProjectId,LED-Panel,4c45442d-5061-46e6-956c-2e6b69636164,rev?*%
%TF.SameCoordinates,Original*%
%TF.FileFunction,Paste,Top*%
%TF.FilePolarity,Positive*%
%FSLAX46Y46*%
G04 Gerber Fmt 4.6, Leading zero omitted, Abs format (unit mm)*
G04 Created by KiCad (PCBNEW 8.0.7) date 2025-02-01 19:51:36*
%MOMM*%
%LPD*%
G01*
G04 APERTURE LIST*
G04 Aperture macros list*
%AMRoundRect*
0 Rectangle with rounded corners*
0 $1 Rounding radius*
0 $2 $3 $4 $5 $6 $7 $8 $9 X,Y pos of 4 corners*
0 Add a 4 corners polygon primitive as box body*
4,1,4,$2,$3,$4,$5,$6,$7,$8,$9,$2,$3,0*
0 Add four circle primitives for the rounded corners*
1,1,$1+$1,$2,$3*
1,1,$1+$1,$4,$5*
1,1,$1+$1,$6,$7*
1,1,$1+$1,$8,$9*
0 Add four rect primitives between the rounded corners*
20,1,$1+$1,$2,$3,$4,$5,0*
20,1,$1+$1,$4,$5,$6,$7,0*
20,1,$1+$1,$6,$7,$8,$9,0*
20,1,$1+$1,$8,$9,$2,$3,0*%
G04 Aperture macros list end*
%ADD10RoundRect,0.140000X0.170000X-0.140000X0.170000X0.140000X-0.170000X0.140000X-0.170000X-0.140000X0*%
%ADD11RoundRect,0.090000X0.660000X0.360000X-0.660000X0.360000X-0.660000X-0.360000X0.660000X-0.360000X0*%
%ADD12RoundRect,0.140000X-0.140000X-0.170000X0.140000X-0.170000X0.140000X0.170000X-0.140000X0.170000X0*%
%ADD13RoundRect,0.135000X-0.135000X-0.185000X0.135000X-0.185000X0.135000X0.185000X-0.135000X0.185000X0*%
%ADD14R,1.240000X0.600000*%
%ADD15R,1.240000X0.300000*%
%ADD16RoundRect,0.150000X-0.512500X-0.150000X0.512500X-0.150000X0.512500X0.150000X-0.512500X0.150000X0*%
G04 APERTURE END LIST*
D10*
%TO.C,C50*%
X108700000Y-109100000D03*
X108700000Y-108140000D03*
%TD*%
D11*
%TO.C,D86*%
X183000000Y-141300000D03*
X183000000Y-138000000D03*
X178100000Y-138000000D03*
X178100000Y-141300000D03*
%TD*%
%TO.C,D61*%
X192500000Y-129300000D03*
X192500000Y-126000000D03*
X187600000Y-126000000D03*
X187600000Y-129300000D03*
%TD*%
D12*
%TO.C,C4*%
X175320000Y-102000000D03*
X176280000Y-102000000D03*
%TD*%
%TO.C,C44*%
X137320000Y-138000000D03*
X138280000Y-138000000D03*
%TD*%
D11*
%TO.C,D76*%
X211500000Y-135300000D03*
X211500000Y-132000000D03*
X206600000Y-132000000D03*
X206600000Y-135300000D03*
%TD*%
%TO.C,D39*%
X230500000Y-117300000D03*
X230500000Y-114000000D03*
X225600000Y-114000000D03*
X225600000Y-117300000D03*
%TD*%
%TO.C,D15*%
X126000000Y-111300000D03*
X126000000Y-108000000D03*
X121100000Y-108000000D03*
X121100000Y-111300000D03*
%TD*%
D12*
%TO.C,C11*%
X175320000Y-108000000D03*
X176280000Y-108000000D03*
%TD*%
D13*
%TO.C,R1*%
X106440000Y-129470000D03*
X107460000Y-129470000D03*
%TD*%
D11*
%TO.C,D4*%
X145000000Y-105300000D03*
X145000000Y-102000000D03*
X140100000Y-102000000D03*
X140100000Y-105300000D03*
%TD*%
%TO.C,D42*%
X135500000Y-123300000D03*
X135500000Y-120000000D03*
X130600000Y-120000000D03*
X130600000Y-123300000D03*
%TD*%
%TO.C,D71*%
X164000000Y-135300000D03*
X164000000Y-132000000D03*
X159100000Y-132000000D03*
X159100000Y-135300000D03*
%TD*%
D12*
%TO.C,C24*%
X156320000Y-120000000D03*
X157280000Y-120000000D03*
%TD*%
%TO.C,C36*%
X118320000Y-132000000D03*
X119280000Y-132000000D03*
%TD*%
%TO.C,C45*%
X156320000Y-138000000D03*
X157280000Y-138000000D03*
%TD*%
D14*
%TO.C,J1*%
X107940000Y-118840000D03*
X107940000Y-119640000D03*
D15*
X107940000Y-120790000D03*
X107940000Y-121790000D03*
X107940000Y-122290000D03*
X107940000Y-123290000D03*
D14*
X107940000Y-124440000D03*
X107940000Y-125240000D03*
X107940000Y-125240000D03*
X107940000Y-124440000D03*
D15*
X107940000Y-123790000D03*
X107940000Y-122790000D03*
X107940000Y-121290000D03*
X107940000Y-120290000D03*
D14*
X107940000Y-119640000D03*
X107940000Y-118840000D03*
%TD*%
D12*
%TO.C,C2*%
X137320000Y-102000000D03*
X138280000Y-102000000D03*
%TD*%
%TO.C,C37*%
X137320000Y-132000000D03*
X138280000Y-132000000D03*
%TD*%
D11*
%TO.C,D17*%
X145000000Y-111300000D03*
X145000000Y-108000000D03*
X140100000Y-108000000D03*
X140100000Y-111300000D03*
%TD*%
D12*
%TO.C,C34*%
X213320000Y-126000000D03*
X214280000Y-126000000D03*
%TD*%
D11*
%TO.C,D35*%
X192500000Y-117300000D03*
X192500000Y-114000000D03*
X187600000Y-114000000D03*
X187600000Y-117300000D03*
%TD*%
D13*
%TO.C,R2*%
X106440000Y-130700000D03*
X107460000Y-130700000D03*
%TD*%
D12*
%TO.C,C28*%
X222820000Y-120000000D03*
X223780000Y-120000000D03*
%TD*%
D11*
%TO.C,D77*%
X221000000Y-135300000D03*
X221000000Y-132000000D03*
X216100000Y-132000000D03*
X216100000Y-135300000D03*
%TD*%
%TO.C,D58*%
X164000000Y-129300000D03*
X164000000Y-126000000D03*
X159100000Y-126000000D03*
X159100000Y-129300000D03*
%TD*%
D12*
%TO.C,C16*%
X137320000Y-114000000D03*
X138280000Y-114000000D03*
%TD*%
%TO.C,C19*%
X194320000Y-114000000D03*
X195280000Y-114000000D03*
%TD*%
%TO.C,C13*%
X213320000Y-108000000D03*
X214280000Y-108000000D03*
%TD*%
D11*
%TO.C,D49*%
X202000000Y-123300000D03*
X202000000Y-120000000D03*
X197100000Y-120000000D03*
X197100000Y-123300000D03*
%TD*%
D16*
%TO.C,U1*%
X106190000Y-110640000D03*
X106190000Y-111590000D03*
X106190000Y-112540000D03*
X108465000Y-112540000D03*
X108465000Y-110640000D03*
%TD*%
D12*
%TO.C,C29*%
X118320000Y-126000000D03*
X119280000Y-126000000D03*
%TD*%
D11*
%TO.C,D78*%
X230500000Y-135300000D03*
X230500000Y-132000000D03*
X225600000Y-132000000D03*
X225600000Y-135300000D03*
%TD*%
D12*
%TO.C,C20*%
X213320000Y-114000000D03*
X214280000Y-114000000D03*
%TD*%
D11*
%TO.C,D23*%
X202000000Y-111300000D03*
X202000000Y-108000000D03*
X197100000Y-108000000D03*
X197100000Y-111300000D03*
%TD*%
%TO.C,D90*%
X221000000Y-141300000D03*
X221000000Y-138000000D03*
X216100000Y-138000000D03*
X216100000Y-141300000D03*
%TD*%
%TO.C,D12*%
X221000000Y-105300000D03*
X221000000Y-102000000D03*
X216100000Y-102000000D03*
X216100000Y-105300000D03*
%TD*%
%TO.C,D89*%
X211500000Y-141300000D03*
X211500000Y-138000000D03*
X206600000Y-138000000D03*
X206600000Y-141300000D03*
%TD*%
%TO.C,D16*%
X135500000Y-111300000D03*
X135500000Y-108000000D03*
X130600000Y-108000000D03*
X130600000Y-111300000D03*
%TD*%
%TO.C,D65*%
X230500000Y-129300000D03*
X230500000Y-126000000D03*
X225600000Y-126000000D03*
X225600000Y-129300000D03*
%TD*%
D12*
%TO.C,C14*%
X222820000Y-108000000D03*
X223780000Y-108000000D03*
%TD*%
%TO.C,C40*%
X194320000Y-132000000D03*
X195280000Y-132000000D03*
%TD*%
D11*
%TO.C,D67*%
X126000000Y-135300000D03*
X126000000Y-132000000D03*
X121100000Y-132000000D03*
X121100000Y-135300000D03*
%TD*%
%TO.C,D53*%
X116500000Y-129300000D03*
X116500000Y-126000000D03*
X111600000Y-126000000D03*
X111600000Y-129300000D03*
%TD*%
D12*
%TO.C,C26*%
X194320000Y-120000000D03*
X195280000Y-120000000D03*
%TD*%
D11*
%TO.C,D83*%
X154500000Y-141300000D03*
X154500000Y-138000000D03*
X149600000Y-138000000D03*
X149600000Y-141300000D03*
%TD*%
%TO.C,D47*%
X183000000Y-123300000D03*
X183000000Y-120000000D03*
X178100000Y-120000000D03*
X178100000Y-123300000D03*
%TD*%
%TO.C,D2*%
X126000000Y-105300000D03*
X126000000Y-102000000D03*
X121100000Y-102000000D03*
X121100000Y-105300000D03*
%TD*%
%TO.C,D64*%
X221000000Y-129300000D03*
X221000000Y-126000000D03*
X216100000Y-126000000D03*
X216100000Y-129300000D03*
%TD*%
%TO.C,D14*%
X116500000Y-111300000D03*
X116500000Y-108000000D03*
X111600000Y-108000000D03*
X111600000Y-111300000D03*
%TD*%
%TO.C,D55*%
X135500000Y-129300000D03*
X135500000Y-126000000D03*
X130600000Y-126000000D03*
X130600000Y-129300000D03*
%TD*%
D12*
%TO.C,C23*%
X137320000Y-120000000D03*
X138280000Y-120000000D03*
%TD*%
%TO.C,C43*%
X118320000Y-138000000D03*
X119280000Y-138000000D03*
%TD*%
D11*
%TO.C,D1*%
X116500000Y-105300000D03*
X116500000Y-102000000D03*
X111600000Y-102000000D03*
X111600000Y-105300000D03*
%TD*%
%TO.C,D66*%
X116500000Y-135300000D03*
X116500000Y-132000000D03*
X111600000Y-132000000D03*
X111600000Y-135300000D03*
%TD*%
%TO.C,D34*%
X183000000Y-117300000D03*
X183000000Y-114000000D03*
X178100000Y-114000000D03*
X178100000Y-117300000D03*
%TD*%
%TO.C,D56*%
X145000000Y-129300000D03*
X145000000Y-126000000D03*
X140100000Y-126000000D03*
X140100000Y-129300000D03*
%TD*%
%TO.C,D40*%
X116500000Y-123300000D03*
X116500000Y-120000000D03*
X111600000Y-120000000D03*
X111600000Y-123300000D03*
%TD*%
%TO.C,D44*%
X154500000Y-123300000D03*
X154500000Y-120000000D03*
X149600000Y-120000000D03*
X149600000Y-123300000D03*
%TD*%
%TO.C,D25*%
X221000000Y-111300000D03*
X221000000Y-108000000D03*
X216100000Y-108000000D03*
X216100000Y-111300000D03*
%TD*%
%TO.C,D41*%
X126000000Y-123300000D03*
X126000000Y-120000000D03*
X121100000Y-120000000D03*
X121100000Y-123300000D03*
%TD*%
D12*
%TO.C,C39*%
X175320000Y-132000000D03*
X176280000Y-132000000D03*
%TD*%
D11*
%TO.C,D13*%
X230500000Y-105300000D03*
X230500000Y-102000000D03*
X225600000Y-102000000D03*
X225600000Y-105300000D03*
%TD*%
%TO.C,D91*%
X230500000Y-141300000D03*
X230500000Y-138000000D03*
X225600000Y-138000000D03*
X225600000Y-141300000D03*
%TD*%
%TO.C,D20*%
X173500000Y-111300000D03*
X173500000Y-108000000D03*
X168600000Y-108000000D03*
X168600000Y-111300000D03*
%TD*%
%TO.C,D19*%
X164000000Y-111300000D03*
X164000000Y-108000000D03*
X159100000Y-108000000D03*
X159100000Y-111300000D03*
%TD*%
D12*
%TO.C,C15*%
X118320000Y-114000000D03*
X119280000Y-114000000D03*
%TD*%
D11*
%TO.C,D87*%
X192500000Y-141300000D03*
X192500000Y-138000000D03*
X187600000Y-138000000D03*
X187600000Y-141300000D03*
%TD*%
D12*
%TO.C,C17*%
X156320000Y-114000000D03*
X157280000Y-114000000D03*
%TD*%
%TO.C,C8*%
X118320000Y-108000000D03*
X119280000Y-108000000D03*
%TD*%
%TO.C,C30*%
X137320000Y-126000000D03*
X138280000Y-126000000D03*
%TD*%
%TO.C,C1*%
X118320000Y-102000000D03*
X119280000Y-102000000D03*
%TD*%
D11*
%TO.C,D51*%
X221000000Y-123300000D03*
X221000000Y-120000000D03*
X216100000Y-120000000D03*
X216100000Y-123300000D03*
%TD*%
D12*
%TO.C,C21*%
X222820000Y-114000000D03*
X223780000Y-114000000D03*
%TD*%
%TO.C,C7*%
X222820000Y-102000000D03*
X223780000Y-102000000D03*
%TD*%
D11*
%TO.C,D73*%
X183000000Y-135300000D03*
X183000000Y-132000000D03*
X178100000Y-132000000D03*
X178100000Y-135300000D03*
%TD*%
%TO.C,D75*%
X202000000Y-135300000D03*
X202000000Y-132000000D03*
X197100000Y-132000000D03*
X197100000Y-135300000D03*
%TD*%
%TO.C,D6*%
X164000000Y-105300000D03*
X164000000Y-102000000D03*
X159100000Y-102000000D03*
X159100000Y-105300000D03*
%TD*%
%TO.C,D70*%
X154500000Y-135300000D03*
X154500000Y-132000000D03*
X149600000Y-132000000D03*
X149600000Y-135300000D03*
%TD*%
%TO.C,D18*%
X154500000Y-111300000D03*
X154500000Y-108000000D03*
X149600000Y-108000000D03*
X149600000Y-111300000D03*
%TD*%
D12*
%TO.C,C35*%
X222820000Y-126000000D03*
X223780000Y-126000000D03*
%TD*%
D11*
%TO.C,D88*%
X202000000Y-141300000D03*
X202000000Y-138000000D03*
X197100000Y-138000000D03*
X197100000Y-141300000D03*
%TD*%
%TO.C,D84*%
X164000000Y-141300000D03*
X164000000Y-138000000D03*
X159100000Y-138000000D03*
X159100000Y-141300000D03*
%TD*%
%TO.C,D60*%
X183000000Y-129300000D03*
X183000000Y-126000000D03*
X178100000Y-126000000D03*
X178100000Y-129300000D03*
%TD*%
%TO.C,D27*%
X116500000Y-117300000D03*
X116500000Y-114000000D03*
X111600000Y-114000000D03*
X111600000Y-117300000D03*
%TD*%
D12*
%TO.C,C41*%
X213320000Y-132000000D03*
X214280000Y-132000000D03*
%TD*%
%TO.C,C6*%
X213320000Y-102000000D03*
X214280000Y-102000000D03*
%TD*%
D11*
%TO.C,D36*%
X202000000Y-117300000D03*
X202000000Y-114000000D03*
X197100000Y-114000000D03*
X197100000Y-117300000D03*
%TD*%
%TO.C,D50*%
X211500000Y-123300000D03*
X211500000Y-120000000D03*
X206600000Y-120000000D03*
X206600000Y-123300000D03*
%TD*%
%TO.C,D7*%
X173500000Y-105300000D03*
X173500000Y-102000000D03*
X168600000Y-102000000D03*
X168600000Y-105300000D03*
%TD*%
%TO.C,D52*%
X230500000Y-123300000D03*
X230500000Y-120000000D03*
X225600000Y-120000000D03*
X225600000Y-123300000D03*
%TD*%
D12*
%TO.C,C38*%
X156320000Y-132000000D03*
X157280000Y-132000000D03*
%TD*%
D11*
%TO.C,D79*%
X116500000Y-141300000D03*
X116500000Y-138000000D03*
X111600000Y-138000000D03*
X111600000Y-141300000D03*
%TD*%
D12*
%TO.C,C27*%
X213320000Y-120000000D03*
X214280000Y-120000000D03*
%TD*%
D11*
%TO.C,D43*%
X145000000Y-123300000D03*
X145000000Y-120000000D03*
X140100000Y-120000000D03*
X140100000Y-123300000D03*
%TD*%
%TO.C,D48*%
X192500000Y-123300000D03*
X192500000Y-120000000D03*
X187600000Y-120000000D03*
X187600000Y-123300000D03*
%TD*%
%TO.C,D10*%
X202000000Y-105300000D03*
X202000000Y-102000000D03*
X197100000Y-102000000D03*
X197100000Y-105300000D03*
%TD*%
%TO.C,D29*%
X135500000Y-117300000D03*
X135500000Y-114000000D03*
X130600000Y-114000000D03*
X130600000Y-117300000D03*
%TD*%
%TO.C,D37*%
X211500000Y-117300000D03*
X211500000Y-114000000D03*
X206600000Y-114000000D03*
X206600000Y-117300000D03*
%TD*%
D12*
%TO.C,C10*%
X156320000Y-108000000D03*
X157280000Y-108000000D03*
%TD*%
%TO.C,C42*%
X222820000Y-132000000D03*
X223780000Y-132000000D03*
%TD*%
D11*
%TO.C,D30*%
X145000000Y-117300000D03*
X145000000Y-114000000D03*
X140100000Y-114000000D03*
X140100000Y-117300000D03*
%TD*%
%TO.C,D45*%
X164000000Y-123300000D03*
X164000000Y-120000000D03*
X159100000Y-120000000D03*
X159100000Y-123300000D03*
%TD*%
D12*
%TO.C,C25*%
X175320000Y-120000000D03*
X176280000Y-120000000D03*
%TD*%
%TO.C,C9*%
X137320000Y-108000000D03*
X138280000Y-108000000D03*
%TD*%
D11*
%TO.C,D85*%
X173500000Y-141300000D03*
X173500000Y-138000000D03*
X168600000Y-138000000D03*
X168600000Y-141300000D03*
%TD*%
D12*
%TO.C,C32*%
X175320000Y-126000000D03*
X176280000Y-126000000D03*
%TD*%
D11*
%TO.C,D33*%
X173500000Y-117300000D03*
X173500000Y-114000000D03*
X168600000Y-114000000D03*
X168600000Y-117300000D03*
%TD*%
%TO.C,D82*%
X145000000Y-141300000D03*
X145000000Y-138000000D03*
X140100000Y-138000000D03*
X140100000Y-141300000D03*
%TD*%
%TO.C,D68*%
X135500000Y-135300000D03*
X135500000Y-132000000D03*
X130600000Y-132000000D03*
X130600000Y-135300000D03*
%TD*%
%TO.C,D26*%
X230500000Y-111300000D03*
X230500000Y-108000000D03*
X225600000Y-108000000D03*
X225600000Y-111300000D03*
%TD*%
%TO.C,D9*%
X192500000Y-105300000D03*
X192500000Y-102000000D03*
X187600000Y-102000000D03*
X187600000Y-105300000D03*
%TD*%
D12*
%TO.C,C31*%
X156320000Y-126000000D03*
X157280000Y-126000000D03*
%TD*%
D11*
%TO.C,D72*%
X173500000Y-135300000D03*
X173500000Y-132000000D03*
X168600000Y-132000000D03*
X168600000Y-135300000D03*
%TD*%
%TO.C,D3*%
X135500000Y-105300000D03*
X135500000Y-102000000D03*
X130600000Y-102000000D03*
X130600000Y-105300000D03*
%TD*%
%TO.C,D63*%
X211500000Y-129300000D03*
X211500000Y-126000000D03*
X206600000Y-126000000D03*
X206600000Y-129300000D03*
%TD*%
%TO.C,D62*%
X202000000Y-129300000D03*
X202000000Y-126000000D03*
X197100000Y-126000000D03*
X197100000Y-129300000D03*
%TD*%
D12*
%TO.C,C18*%
X175320000Y-114000000D03*
X176280000Y-114000000D03*
%TD*%
D11*
%TO.C,D59*%
X173500000Y-129300000D03*
X173500000Y-126000000D03*
X168600000Y-126000000D03*
X168600000Y-129300000D03*
%TD*%
%TO.C,D38*%
X221000000Y-117300000D03*
X221000000Y-114000000D03*
X216100000Y-114000000D03*
X216100000Y-117300000D03*
%TD*%
%TO.C,D24*%
X211500000Y-111300000D03*
X211500000Y-108000000D03*
X206600000Y-108000000D03*
X206600000Y-111300000D03*
%TD*%
%TO.C,D81*%
X135500000Y-141300000D03*
X135500000Y-138000000D03*
X130600000Y-138000000D03*
X130600000Y-141300000D03*
%TD*%
%TO.C,D74*%
X192500000Y-135300000D03*
X192500000Y-132000000D03*
X187600000Y-132000000D03*
X187600000Y-135300000D03*
%TD*%
%TO.C,D28*%
X126000000Y-117300000D03*
X126000000Y-114000000D03*
X121100000Y-114000000D03*
X121100000Y-117300000D03*
%TD*%
%TO.C,D69*%
X145000000Y-135300000D03*
X145000000Y-132000000D03*
X140100000Y-132000000D03*
X140100000Y-135300000D03*
%TD*%
%TO.C,D8*%
X183000000Y-105300000D03*
X183000000Y-102000000D03*
X178100000Y-102000000D03*
X178100000Y-105300000D03*
%TD*%
D12*
%TO.C,C47*%
X194320000Y-138000000D03*
X195280000Y-138000000D03*
%TD*%
D11*
%TO.C,D5*%
X154500000Y-105300000D03*
X154500000Y-102000000D03*
X149600000Y-102000000D03*
X149600000Y-105300000D03*
%TD*%
%TO.C,D80*%
X126000000Y-141300000D03*
X126000000Y-138000000D03*
X121100000Y-138000000D03*
X121100000Y-141300000D03*
%TD*%
D12*
%TO.C,C46*%
X175320000Y-138000000D03*
X176280000Y-138000000D03*
%TD*%
%TO.C,C22*%
X118320000Y-120000000D03*
X119280000Y-120000000D03*
%TD*%
D11*
%TO.C,D57*%
X154500000Y-129300000D03*
X154500000Y-126000000D03*
X149600000Y-126000000D03*
X149600000Y-129300000D03*
%TD*%
D12*
%TO.C,C3*%
X156320000Y-102000000D03*
X157280000Y-102000000D03*
%TD*%
D11*
%TO.C,D22*%
X192500000Y-111300000D03*
X192500000Y-108000000D03*
X187600000Y-108000000D03*
X187600000Y-111300000D03*
%TD*%
%TO.C,D31*%
X154500000Y-117300000D03*
X154500000Y-114000000D03*
X149600000Y-114000000D03*
X149600000Y-117300000D03*
%TD*%
%TO.C,D54*%
X126000000Y-129300000D03*
X126000000Y-126000000D03*
X121100000Y-126000000D03*
X121100000Y-129300000D03*
%TD*%
D12*
%TO.C,C33*%
X194320000Y-126000000D03*
X195280000Y-126000000D03*
%TD*%
D11*
%TO.C,D21*%
X183000000Y-111300000D03*
X183000000Y-108000000D03*
X178100000Y-108000000D03*
X178100000Y-111300000D03*
%TD*%
%TO.C,D32*%
X164000000Y-117300000D03*
X164000000Y-114000000D03*
X159100000Y-114000000D03*
X159100000Y-117300000D03*
%TD*%
D12*
%TO.C,C49*%
X222820000Y-138000000D03*
X223780000Y-138000000D03*
%TD*%
D11*
%TO.C,D46*%
X173500000Y-123300000D03*
X173500000Y-120000000D03*
X168600000Y-120000000D03*
X168600000Y-123300000D03*
%TD*%
D12*
%TO.C,C5*%
X194320000Y-102000000D03*
X195280000Y-102000000D03*
%TD*%
%TO.C,C48*%
X213320000Y-138000000D03*
X214280000Y-138000000D03*
%TD*%
%TO.C,C12*%
X194320000Y-108000000D03*
X195280000Y-108000000D03*
%TD*%
D11*
%TO.C,D11*%
X211500000Y-105300000D03*
X211500000Y-102000000D03*
X206600000Y-102000000D03*
X206600000Y-105300000D03*
%TD*%
M02*
