M48
; DRILL file {KiCad 8.0.7} date 2025-02-01T19:51:38+0000
; FORMAT={-:-/ absolute / inch / decimal}
; #@! TF.CreationDate,2025-02-01T19:51:38+00:00
; #@! TF.GenerationSoftware,Kicad,Pcbnew,8.0.7
; #@! TF.FileFunction,Plated,1,2,PTH
FMAT,2
INCH
; #@! TA.AperFunction,Plated,PTH,ViaDrill
T1C0.0118
; #@! TA.AperFunction,Plated,PTH,ComponentDrill
T2C0.0236
; #@! TA.AperFunction,Plated,PTH,ComponentDrill
T3C0.0394
%
G90
G05
T1
X4.1807Y-4.4732
X4.2685Y-5.0972
X4.2685Y-5.1461
X4.2795Y-4.2185
X4.2933Y-4.9291
X4.2992Y-4.6772
X4.4469Y-4.4882
X4.4488Y-4.0157
X4.4488Y-4.252
X4.4488Y-4.7244
X4.4488Y-4.9606
X4.4488Y-5.1969
X4.4488Y-5.4331
X4.8228Y-4.252
X4.8228Y-4.4862
X4.8228Y-4.7244
X4.8228Y-4.9606
X4.8228Y-5.1969
X4.8228Y-5.4331
X4.8248Y-4.0157
X5.1969Y-4.252
X5.1969Y-4.4882
X5.1969Y-4.7244
X5.1969Y-4.9606
X5.1969Y-5.4331
X5.1988Y-4.0157
X5.1988Y-5.1969
X5.5709Y-4.4882
X5.5709Y-4.7244
X5.5709Y-4.9587
X5.5709Y-5.1969
X5.5709Y-5.4331
X5.5728Y-4.0157
X5.5728Y-4.252
X5.9449Y-4.0157
X5.9449Y-4.252
X5.9449Y-4.7244
X5.9449Y-4.9606
X5.9449Y-5.1969
X5.9449Y-5.4331
X5.9469Y-4.4882
X6.3169Y-4.4882
X6.3189Y-4.252
X6.3189Y-4.7264
X6.3189Y-4.9606
X6.3189Y-5.1969
X6.3189Y-5.4331
X6.3209Y-4.0157
X6.6929Y-4.0157
X6.6929Y-4.252
X6.6929Y-4.4882
X6.6929Y-4.7244
X6.6929Y-5.1969
X6.6929Y-5.4331
X6.6949Y-4.9606
X7.065Y-4.252
X7.0669Y-4.0157
X7.0669Y-4.4882
X7.0669Y-4.7244
X7.0669Y-4.9606
X7.0669Y-5.4331
X7.0689Y-5.1969
X7.439Y-4.9606
X7.4409Y-4.0157
X7.4409Y-4.252
X7.4409Y-4.4882
X7.4409Y-4.7244
X7.4409Y-5.1969
X7.4409Y-5.4331
X7.813Y-4.9606
X7.815Y-4.252
X7.815Y-4.4882
X7.815Y-4.7244
X7.815Y-5.1969
X7.815Y-5.4331
X7.8169Y-4.0157
X8.189Y-4.0157
X8.189Y-4.252
X8.189Y-4.4882
X8.189Y-4.7244
X8.189Y-4.9606
X8.189Y-5.1969
X8.189Y-5.4331
X8.561Y-5.1969
X8.563Y-4.0157
X8.563Y-4.252
X8.563Y-4.4882
X8.563Y-4.7244
X8.565Y-4.9606
X8.565Y-5.4331
X8.9331Y-5.1969
X8.935Y-4.9606
X8.935Y-5.4331
X8.937Y-4.252
X8.937Y-4.4882
X8.937Y-4.7244
X8.939Y-4.0157
T3
X4.0562Y-4.2799
X4.0562Y-4.3799
X4.0562Y-4.4799
T2
G00X4.0764Y-4.6346
M15
G01X4.0449Y-4.6346
M16
G05
G00X4.0764Y-4.9748
M15
G01X4.0449Y-4.9748
M16
G05
G00X4.2476Y-4.6346
M15
G01X4.2043Y-4.6346
M16
G05
G00X4.2476Y-4.9748
M15
G01X4.2043Y-4.9748
M16
G05
M30
