%TF.GenerationSoftware,KiCad,Pcbnew,8.0.7*%
%TF.CreationDate,2025-02-01T19:51:36+00:00*%
%TF.ProjectId,LED-Panel,4c45442d-5061-46e6-956c-2e6b69636164,rev?*%
%TF.SameCoordinates,Original*%
%TF.FileFunction,Copper,L2,Bot*%
%TF.FilePolarity,Positive*%
%FSLAX46Y46*%
G04 Gerber Fmt 4.6, Leading zero omitted, Abs format (unit mm)*
G04 Created by KiCad (PCBNEW 8.0.7) date 2025-02-01 19:51:36*
%MOMM*%
%LPD*%
G01*
G04 APERTURE LIST*
%TA.AperFunction,ComponentPad*%
%ADD10O,2.100000X1.000000*%
%TD*%
%TA.AperFunction,ComponentPad*%
%ADD11O,1.800000X1.000000*%
%TD*%
%TA.AperFunction,ComponentPad*%
%ADD12R,1.700000X1.700000*%
%TD*%
%TA.AperFunction,ComponentPad*%
%ADD13O,1.700000X1.700000*%
%TD*%
%TA.AperFunction,ViaPad*%
%ADD14C,0.600000*%
%TD*%
G04 APERTURE END LIST*
D10*
%TO.P,J1,S1,SHIELD*%
%TO.N,GND*%
X107340000Y-117720000D03*
D11*
X103140000Y-117720000D03*
D10*
X107340000Y-126360000D03*
D11*
X103140000Y-126360000D03*
%TD*%
D12*
%TO.P,J2,1,Pin_1*%
%TO.N,GND*%
X103027500Y-108710000D03*
D13*
%TO.P,J2,2,Pin_2*%
%TO.N,Net-(J2-Pin_2)*%
X103027500Y-111250000D03*
%TO.P,J2,3,Pin_3*%
%TO.N,+5V*%
X103027500Y-113790000D03*
%TD*%
D14*
%TO.N,GND*%
X108700000Y-107150000D03*
X170000000Y-138000000D03*
X160450000Y-114000000D03*
X132000000Y-126000000D03*
X208000000Y-102000000D03*
X141500000Y-125950000D03*
X160500000Y-138000000D03*
X109050000Y-125200000D03*
X170000000Y-132000000D03*
X189000000Y-114000000D03*
X179500000Y-114000000D03*
X179450000Y-108000000D03*
X132050000Y-132000000D03*
X226950000Y-126000000D03*
X217500000Y-114000000D03*
X198500000Y-132000000D03*
X189000000Y-108000000D03*
X122500000Y-132000000D03*
X122550000Y-102000000D03*
X109200000Y-118800000D03*
X141550000Y-102000000D03*
X122500000Y-126000000D03*
X227000000Y-108000000D03*
X170050000Y-126000000D03*
X217550000Y-126000000D03*
X132000000Y-120000000D03*
X141500000Y-120000000D03*
X179500000Y-138000000D03*
X217500000Y-120000000D03*
X179500000Y-102000000D03*
X170000000Y-108000000D03*
X151050000Y-114000000D03*
X217500000Y-102000000D03*
X132000000Y-108000000D03*
X113000000Y-138000000D03*
X141550000Y-108000000D03*
X217450000Y-132000000D03*
X226950000Y-138000000D03*
X170000000Y-102000000D03*
X141500000Y-132000000D03*
X160500000Y-126000000D03*
X179550000Y-132000000D03*
X170000000Y-120000000D03*
X227000000Y-120000000D03*
X170000000Y-114000000D03*
X132000000Y-114000000D03*
X217550000Y-138000000D03*
X227050000Y-102000000D03*
X208000000Y-138000000D03*
X151000000Y-126000000D03*
X179500000Y-120000000D03*
X113000000Y-126000000D03*
X227000000Y-114000000D03*
X122500000Y-113950000D03*
X113000000Y-120000000D03*
X151000000Y-120000000D03*
X198500000Y-108000000D03*
X208000000Y-126000000D03*
X151000000Y-132000000D03*
X198500000Y-114000000D03*
X151000000Y-108000000D03*
X113000000Y-108000000D03*
X189000000Y-102000000D03*
X208000000Y-114000000D03*
X189000000Y-138000000D03*
X151000000Y-138000000D03*
X160500000Y-120050000D03*
X132050000Y-102000000D03*
X122500000Y-120000000D03*
X160550000Y-102000000D03*
X113000000Y-132000000D03*
X208000000Y-132000000D03*
X141500000Y-114000000D03*
X122500000Y-108000000D03*
X198550000Y-102000000D03*
X188950000Y-126000000D03*
X226900000Y-132000000D03*
X113000000Y-102000000D03*
X198500000Y-120000000D03*
X198450000Y-126000000D03*
X106190000Y-113620000D03*
X151000000Y-102000000D03*
X189000000Y-132000000D03*
X160500000Y-132000000D03*
X141500000Y-138000000D03*
X208000000Y-120000000D03*
X160500000Y-108000000D03*
X179500000Y-126000000D03*
X108420000Y-130710000D03*
X208000000Y-108000000D03*
X198500000Y-138000000D03*
X217500000Y-108000000D03*
X122500000Y-138000000D03*
X112950000Y-114000000D03*
X132000000Y-138000000D03*
X189000000Y-120000000D03*
X108420000Y-129470000D03*
%TD*%
%TA.AperFunction,Conductor*%
%TO.N,GND*%
G36*
X233222539Y-100530185D02*
G01*
X233268294Y-100582989D01*
X233279500Y-100634500D01*
X233279500Y-143385500D01*
X233259815Y-143452539D01*
X233207011Y-143498294D01*
X233155500Y-143509500D01*
X100624500Y-143509500D01*
X100557461Y-143489815D01*
X100511706Y-143437011D01*
X100500500Y-143385500D01*
X100500500Y-126110000D01*
X101770138Y-126110000D01*
X102573012Y-126110000D01*
X102555795Y-126119940D01*
X102499940Y-126175795D01*
X102460444Y-126244204D01*
X102440000Y-126320504D01*
X102440000Y-126399496D01*
X102460444Y-126475796D01*
X102499940Y-126544205D01*
X102555795Y-126600060D01*
X102573012Y-126610000D01*
X101770138Y-126610000D01*
X101778430Y-126651690D01*
X101778430Y-126651692D01*
X101853807Y-126833671D01*
X101853814Y-126833684D01*
X101963248Y-126997462D01*
X101963251Y-126997466D01*
X102102533Y-127136748D01*
X102102537Y-127136751D01*
X102266315Y-127246185D01*
X102266328Y-127246192D01*
X102448306Y-127321569D01*
X102448318Y-127321572D01*
X102641504Y-127359999D01*
X102641508Y-127360000D01*
X102890000Y-127360000D01*
X102890000Y-126660000D01*
X103390000Y-126660000D01*
X103390000Y-127360000D01*
X103638492Y-127360000D01*
X103638495Y-127359999D01*
X103831681Y-127321572D01*
X103831693Y-127321569D01*
X104013671Y-127246192D01*
X104013684Y-127246185D01*
X104177462Y-127136751D01*
X104177466Y-127136748D01*
X104316748Y-126997466D01*
X104316751Y-126997462D01*
X104426185Y-126833684D01*
X104426192Y-126833671D01*
X104501569Y-126651692D01*
X104501569Y-126651690D01*
X104509862Y-126610000D01*
X103706988Y-126610000D01*
X103724205Y-126600060D01*
X103780060Y-126544205D01*
X103819556Y-126475796D01*
X103840000Y-126399496D01*
X103840000Y-126320504D01*
X103819556Y-126244204D01*
X103780060Y-126175795D01*
X103724205Y-126119940D01*
X103706988Y-126110000D01*
X104509862Y-126110000D01*
X105820138Y-126110000D01*
X106623012Y-126110000D01*
X106605795Y-126119940D01*
X106549940Y-126175795D01*
X106510444Y-126244204D01*
X106490000Y-126320504D01*
X106490000Y-126399496D01*
X106510444Y-126475796D01*
X106549940Y-126544205D01*
X106605795Y-126600060D01*
X106623012Y-126610000D01*
X105820138Y-126610000D01*
X105828430Y-126651690D01*
X105828430Y-126651692D01*
X105903807Y-126833671D01*
X105903814Y-126833684D01*
X106013248Y-126997462D01*
X106013251Y-126997466D01*
X106152533Y-127136748D01*
X106152537Y-127136751D01*
X106316315Y-127246185D01*
X106316328Y-127246192D01*
X106498306Y-127321569D01*
X106498318Y-127321572D01*
X106691504Y-127359999D01*
X106691508Y-127360000D01*
X107090000Y-127360000D01*
X107090000Y-126660000D01*
X107590000Y-126660000D01*
X107590000Y-127360000D01*
X107988492Y-127360000D01*
X107988495Y-127359999D01*
X108181681Y-127321572D01*
X108181693Y-127321569D01*
X108363671Y-127246192D01*
X108363684Y-127246185D01*
X108527462Y-127136751D01*
X108527466Y-127136748D01*
X108666748Y-126997466D01*
X108666751Y-126997462D01*
X108776185Y-126833684D01*
X108776192Y-126833671D01*
X108851569Y-126651692D01*
X108851569Y-126651690D01*
X108859862Y-126610000D01*
X108056988Y-126610000D01*
X108074205Y-126600060D01*
X108130060Y-126544205D01*
X108169556Y-126475796D01*
X108190000Y-126399496D01*
X108190000Y-126320504D01*
X108169556Y-126244204D01*
X108130060Y-126175795D01*
X108074205Y-126119940D01*
X108056988Y-126110000D01*
X108859862Y-126110000D01*
X108851569Y-126068309D01*
X108851569Y-126068307D01*
X108776192Y-125886328D01*
X108776185Y-125886315D01*
X108666751Y-125722537D01*
X108666748Y-125722533D01*
X108527466Y-125583251D01*
X108527462Y-125583248D01*
X108363684Y-125473814D01*
X108363671Y-125473807D01*
X108181693Y-125398430D01*
X108181681Y-125398427D01*
X107988495Y-125360000D01*
X107590000Y-125360000D01*
X107590000Y-126060000D01*
X107090000Y-126060000D01*
X107090000Y-125412105D01*
X107109685Y-125345066D01*
X107126319Y-125324424D01*
X107148393Y-125302350D01*
X107216499Y-125234244D01*
X107281733Y-125121256D01*
X107315500Y-124995234D01*
X107315500Y-124864766D01*
X107281733Y-124738744D01*
X107216499Y-124625756D01*
X107124244Y-124533501D01*
X107067750Y-124500884D01*
X107011257Y-124468267D01*
X106948245Y-124451383D01*
X106885234Y-124434500D01*
X106754766Y-124434500D01*
X106628742Y-124468267D01*
X106515756Y-124533501D01*
X106515753Y-124533503D01*
X106423503Y-124625753D01*
X106423501Y-124625756D01*
X106358267Y-124738742D01*
X106324500Y-124864766D01*
X106324500Y-124995233D01*
X106358267Y-125121257D01*
X106390884Y-125177750D01*
X106423501Y-125234244D01*
X106423503Y-125234246D01*
X106430284Y-125241027D01*
X106463769Y-125302350D01*
X106458785Y-125372042D01*
X106416913Y-125427975D01*
X106390056Y-125443269D01*
X106316325Y-125473809D01*
X106316315Y-125473814D01*
X106152537Y-125583248D01*
X106152533Y-125583251D01*
X106013251Y-125722533D01*
X106013248Y-125722537D01*
X105903814Y-125886315D01*
X105903807Y-125886328D01*
X105828430Y-126068307D01*
X105828430Y-126068309D01*
X105820138Y-126110000D01*
X104509862Y-126110000D01*
X104501569Y-126068309D01*
X104501569Y-126068307D01*
X104426192Y-125886328D01*
X104426185Y-125886315D01*
X104316751Y-125722537D01*
X104316748Y-125722533D01*
X104177466Y-125583251D01*
X104177462Y-125583248D01*
X104013684Y-125473814D01*
X104013671Y-125473807D01*
X103831693Y-125398430D01*
X103831681Y-125398427D01*
X103638495Y-125360000D01*
X103390000Y-125360000D01*
X103390000Y-126060000D01*
X102890000Y-126060000D01*
X102890000Y-125360000D01*
X102641504Y-125360000D01*
X102448318Y-125398427D01*
X102448306Y-125398430D01*
X102266328Y-125473807D01*
X102266315Y-125473814D01*
X102102537Y-125583248D01*
X102102533Y-125583251D01*
X101963251Y-125722533D01*
X101963248Y-125722537D01*
X101853814Y-125886315D01*
X101853807Y-125886328D01*
X101778430Y-126068307D01*
X101778430Y-126068309D01*
X101770138Y-126110000D01*
X100500500Y-126110000D01*
X100500500Y-117470000D01*
X101770138Y-117470000D01*
X102573012Y-117470000D01*
X102555795Y-117479940D01*
X102499940Y-117535795D01*
X102460444Y-117604204D01*
X102440000Y-117680504D01*
X102440000Y-117759496D01*
X102460444Y-117835796D01*
X102499940Y-117904205D01*
X102555795Y-117960060D01*
X102573012Y-117970000D01*
X101770138Y-117970000D01*
X101778430Y-118011690D01*
X101778430Y-118011692D01*
X101853807Y-118193671D01*
X101853814Y-118193684D01*
X101963248Y-118357462D01*
X101963251Y-118357466D01*
X102102533Y-118496748D01*
X102102537Y-118496751D01*
X102266315Y-118606185D01*
X102266328Y-118606192D01*
X102448306Y-118681569D01*
X102448318Y-118681572D01*
X102641504Y-118719999D01*
X102641508Y-118720000D01*
X102890000Y-118720000D01*
X102890000Y-118020000D01*
X103390000Y-118020000D01*
X103390000Y-118720000D01*
X103638492Y-118720000D01*
X103638495Y-118719999D01*
X103831681Y-118681572D01*
X103831693Y-118681569D01*
X104013671Y-118606192D01*
X104013684Y-118606185D01*
X104177462Y-118496751D01*
X104177466Y-118496748D01*
X104316748Y-118357466D01*
X104316751Y-118357462D01*
X104426185Y-118193684D01*
X104426192Y-118193671D01*
X104501569Y-118011692D01*
X104501569Y-118011690D01*
X104509862Y-117970000D01*
X103706988Y-117970000D01*
X103724205Y-117960060D01*
X103780060Y-117904205D01*
X103819556Y-117835796D01*
X103840000Y-117759496D01*
X103840000Y-117680504D01*
X103819556Y-117604204D01*
X103780060Y-117535795D01*
X103724205Y-117479940D01*
X103706988Y-117470000D01*
X104509862Y-117470000D01*
X105820138Y-117470000D01*
X106623012Y-117470000D01*
X106605795Y-117479940D01*
X106549940Y-117535795D01*
X106510444Y-117604204D01*
X106490000Y-117680504D01*
X106490000Y-117759496D01*
X106510444Y-117835796D01*
X106549940Y-117904205D01*
X106605795Y-117960060D01*
X106623012Y-117970000D01*
X105820138Y-117970000D01*
X105828430Y-118011690D01*
X105828430Y-118011692D01*
X105903807Y-118193671D01*
X105903814Y-118193684D01*
X106013248Y-118357462D01*
X106013251Y-118357466D01*
X106152533Y-118496748D01*
X106152537Y-118496751D01*
X106316315Y-118606185D01*
X106316327Y-118606192D01*
X106390055Y-118636730D01*
X106444459Y-118680570D01*
X106466524Y-118746864D01*
X106449245Y-118814564D01*
X106430288Y-118838969D01*
X106423501Y-118845756D01*
X106358267Y-118958742D01*
X106324500Y-119084766D01*
X106324500Y-119215233D01*
X106358267Y-119341257D01*
X106390884Y-119397750D01*
X106423501Y-119454244D01*
X106515756Y-119546499D01*
X106628744Y-119611733D01*
X106754766Y-119645500D01*
X106754768Y-119645500D01*
X106885232Y-119645500D01*
X106885234Y-119645500D01*
X107011256Y-119611733D01*
X107124244Y-119546499D01*
X107216499Y-119454244D01*
X107281733Y-119341256D01*
X107315500Y-119215234D01*
X107315500Y-119084766D01*
X107281733Y-118958744D01*
X107216499Y-118845756D01*
X107126319Y-118755576D01*
X107092834Y-118694253D01*
X107090000Y-118667895D01*
X107090000Y-118020000D01*
X107590000Y-118020000D01*
X107590000Y-118720000D01*
X107988492Y-118720000D01*
X107988495Y-118719999D01*
X108181681Y-118681572D01*
X108181693Y-118681569D01*
X108363671Y-118606192D01*
X108363684Y-118606185D01*
X108527462Y-118496751D01*
X108527466Y-118496748D01*
X108666748Y-118357466D01*
X108666751Y-118357462D01*
X108776185Y-118193684D01*
X108776192Y-118193671D01*
X108851569Y-118011692D01*
X108851569Y-118011690D01*
X108859862Y-117970000D01*
X108056988Y-117970000D01*
X108074205Y-117960060D01*
X108130060Y-117904205D01*
X108169556Y-117835796D01*
X108190000Y-117759496D01*
X108190000Y-117680504D01*
X108169556Y-117604204D01*
X108130060Y-117535795D01*
X108074205Y-117479940D01*
X108056988Y-117470000D01*
X108859862Y-117470000D01*
X108851569Y-117428309D01*
X108851569Y-117428307D01*
X108776192Y-117246328D01*
X108776185Y-117246315D01*
X108666751Y-117082537D01*
X108666748Y-117082533D01*
X108527466Y-116943251D01*
X108527462Y-116943248D01*
X108363684Y-116833814D01*
X108363671Y-116833807D01*
X108181693Y-116758430D01*
X108181681Y-116758427D01*
X107988495Y-116720000D01*
X107590000Y-116720000D01*
X107590000Y-117420000D01*
X107090000Y-117420000D01*
X107090000Y-116720000D01*
X106691504Y-116720000D01*
X106498318Y-116758427D01*
X106498306Y-116758430D01*
X106316328Y-116833807D01*
X106316315Y-116833814D01*
X106152537Y-116943248D01*
X106152533Y-116943251D01*
X106013251Y-117082533D01*
X106013248Y-117082537D01*
X105903814Y-117246315D01*
X105903807Y-117246328D01*
X105828430Y-117428307D01*
X105828430Y-117428309D01*
X105820138Y-117470000D01*
X104509862Y-117470000D01*
X104501569Y-117428309D01*
X104501569Y-117428307D01*
X104426192Y-117246328D01*
X104426185Y-117246315D01*
X104316751Y-117082537D01*
X104316748Y-117082533D01*
X104177466Y-116943251D01*
X104177462Y-116943248D01*
X104013684Y-116833814D01*
X104013671Y-116833807D01*
X103831693Y-116758430D01*
X103831681Y-116758427D01*
X103638495Y-116720000D01*
X103390000Y-116720000D01*
X103390000Y-117420000D01*
X102890000Y-117420000D01*
X102890000Y-116720000D01*
X102641504Y-116720000D01*
X102448318Y-116758427D01*
X102448306Y-116758430D01*
X102266328Y-116833807D01*
X102266315Y-116833814D01*
X102102537Y-116943248D01*
X102102533Y-116943251D01*
X101963251Y-117082533D01*
X101963248Y-117082537D01*
X101853814Y-117246315D01*
X101853807Y-117246328D01*
X101778430Y-117428307D01*
X101778430Y-117428309D01*
X101770138Y-117470000D01*
X100500500Y-117470000D01*
X100500500Y-113790000D01*
X101971917Y-113790000D01*
X101992199Y-113995932D01*
X101992200Y-113995934D01*
X102052268Y-114193954D01*
X102149815Y-114376450D01*
X102149817Y-114376452D01*
X102281089Y-114536410D01*
X102377709Y-114615702D01*
X102441050Y-114667685D01*
X102623546Y-114765232D01*
X102821566Y-114825300D01*
X102821565Y-114825300D01*
X102840029Y-114827118D01*
X103027500Y-114845583D01*
X103233434Y-114825300D01*
X103431454Y-114765232D01*
X103613950Y-114667685D01*
X103773910Y-114536410D01*
X103905185Y-114376450D01*
X104002732Y-114193954D01*
X104062800Y-113995934D01*
X104083083Y-113790000D01*
X104062800Y-113584066D01*
X104002732Y-113386046D01*
X103905185Y-113203550D01*
X103853202Y-113140209D01*
X103773910Y-113043589D01*
X103613952Y-112912317D01*
X103613953Y-112912317D01*
X103613950Y-112912315D01*
X103431454Y-112814768D01*
X103233434Y-112754700D01*
X103233432Y-112754699D01*
X103233434Y-112754699D01*
X103027500Y-112734417D01*
X102821567Y-112754699D01*
X102623543Y-112814769D01*
X102513398Y-112873643D01*
X102441050Y-112912315D01*
X102441048Y-112912316D01*
X102441047Y-112912317D01*
X102281089Y-113043589D01*
X102149817Y-113203547D01*
X102052269Y-113386043D01*
X101992199Y-113584067D01*
X101971917Y-113790000D01*
X100500500Y-113790000D01*
X100500500Y-107812155D01*
X101677500Y-107812155D01*
X101677500Y-108460000D01*
X102594488Y-108460000D01*
X102561575Y-108517007D01*
X102527500Y-108644174D01*
X102527500Y-108775826D01*
X102561575Y-108902993D01*
X102594488Y-108960000D01*
X101677500Y-108960000D01*
X101677500Y-109607844D01*
X101683901Y-109667372D01*
X101683903Y-109667379D01*
X101734145Y-109802086D01*
X101734149Y-109802093D01*
X101820309Y-109917187D01*
X101820312Y-109917190D01*
X101935406Y-110003350D01*
X101935413Y-110003354D01*
X102070120Y-110053596D01*
X102070127Y-110053598D01*
X102129655Y-110059999D01*
X102129672Y-110060000D01*
X102530313Y-110060000D01*
X102597352Y-110079685D01*
X102643107Y-110132489D01*
X102653051Y-110201647D01*
X102624026Y-110265203D01*
X102588767Y-110293357D01*
X102441050Y-110372315D01*
X102441048Y-110372316D01*
X102441047Y-110372317D01*
X102281089Y-110503589D01*
X102149817Y-110663547D01*
X102052269Y-110846043D01*
X101992199Y-111044067D01*
X101971917Y-111250000D01*
X101992199Y-111455932D01*
X101992200Y-111455934D01*
X102052268Y-111653954D01*
X102149815Y-111836450D01*
X102149817Y-111836452D01*
X102281089Y-111996410D01*
X102377709Y-112075702D01*
X102441050Y-112127685D01*
X102623546Y-112225232D01*
X102821566Y-112285300D01*
X102821565Y-112285300D01*
X102840029Y-112287118D01*
X103027500Y-112305583D01*
X103233434Y-112285300D01*
X103431454Y-112225232D01*
X103613950Y-112127685D01*
X103773910Y-111996410D01*
X103905185Y-111836450D01*
X104002732Y-111653954D01*
X104062800Y-111455934D01*
X104083083Y-111250000D01*
X104062800Y-111044066D01*
X104002732Y-110846046D01*
X103905185Y-110663550D01*
X103853202Y-110600209D01*
X103773910Y-110503589D01*
X103613952Y-110372317D01*
X103613953Y-110372317D01*
X103613950Y-110372315D01*
X103466232Y-110293357D01*
X103416389Y-110244395D01*
X103400929Y-110176257D01*
X103424761Y-110110578D01*
X103480319Y-110068209D01*
X103524687Y-110060000D01*
X103925328Y-110060000D01*
X103925344Y-110059999D01*
X103984872Y-110053598D01*
X103984879Y-110053596D01*
X104119586Y-110003354D01*
X104119593Y-110003350D01*
X104234687Y-109917190D01*
X104234690Y-109917187D01*
X104320850Y-109802093D01*
X104320854Y-109802086D01*
X104371096Y-109667379D01*
X104371098Y-109667372D01*
X104377499Y-109607844D01*
X104377500Y-109607827D01*
X104377500Y-108960000D01*
X103460512Y-108960000D01*
X103493425Y-108902993D01*
X103527500Y-108775826D01*
X103527500Y-108644174D01*
X103493425Y-108517007D01*
X103460512Y-108460000D01*
X104377500Y-108460000D01*
X104377500Y-107812172D01*
X104377499Y-107812155D01*
X104371098Y-107752627D01*
X104371096Y-107752620D01*
X104320854Y-107617913D01*
X104320850Y-107617906D01*
X104234690Y-107502812D01*
X104234687Y-107502809D01*
X104119593Y-107416649D01*
X104119586Y-107416645D01*
X103984879Y-107366403D01*
X103984872Y-107366401D01*
X103925344Y-107360000D01*
X103277500Y-107360000D01*
X103277500Y-108276988D01*
X103220493Y-108244075D01*
X103093326Y-108210000D01*
X102961674Y-108210000D01*
X102834507Y-108244075D01*
X102777500Y-108276988D01*
X102777500Y-107360000D01*
X102129655Y-107360000D01*
X102070127Y-107366401D01*
X102070120Y-107366403D01*
X101935413Y-107416645D01*
X101935406Y-107416649D01*
X101820312Y-107502809D01*
X101820309Y-107502812D01*
X101734149Y-107617906D01*
X101734145Y-107617913D01*
X101683903Y-107752620D01*
X101683901Y-107752627D01*
X101677500Y-107812155D01*
X100500500Y-107812155D01*
X100500500Y-100634500D01*
X100520185Y-100567461D01*
X100572989Y-100521706D01*
X100624500Y-100510500D01*
X233155500Y-100510500D01*
X233222539Y-100530185D01*
G37*
%TD.AperFunction*%
%TD*%
M02*
