%TF.GenerationSoftware,KiCad,Pcbnew,8.0.7*%
%TF.CreationDate,2025-02-01T19:51:36+00:00*%
%TF.ProjectId,LED-Panel,4c45442d-5061-46e6-956c-2e6b69636164,rev?*%
%TF.SameCoordinates,Original*%
%TF.FileFunction,Legend,Bot*%
%TF.FilePolarity,Positive*%
%FSLAX46Y46*%
G04 Gerber Fmt 4.6, Leading zero omitted, Abs format (unit mm)*
G04 Created by KiCad (PCBNEW 8.0.7) date 2025-02-01 19:51:36*
%MOMM*%
%LPD*%
G01*
G04 APERTURE LIST*
%ADD10C,0.500000*%
%ADD11C,0.400000*%
%ADD12C,0.300000*%
G04 APERTURE END LIST*
D10*
G36*
X215099999Y-113505714D02*
G01*
X213885206Y-113505714D01*
X213593328Y-113359775D01*
X213460223Y-113226670D01*
X213314284Y-112934791D01*
X213314284Y-112481397D01*
X213460224Y-112189516D01*
X213593325Y-112056416D01*
X213885206Y-111910476D01*
X215099999Y-111910476D01*
X215099999Y-113505714D01*
G37*
G36*
X222719047Y-113505714D02*
G01*
X221504254Y-113505714D01*
X221212376Y-113359775D01*
X221079271Y-113226670D01*
X220933332Y-112934791D01*
X220933332Y-112481397D01*
X221079272Y-112189516D01*
X221212373Y-112056416D01*
X221504254Y-111910476D01*
X222719047Y-111910476D01*
X222719047Y-113505714D01*
G37*
G36*
X205004761Y-107065938D02*
G01*
X203789968Y-107065938D01*
X203498090Y-106919999D01*
X203364985Y-106786894D01*
X203219046Y-106495015D01*
X203219046Y-106041621D01*
X203364986Y-105749740D01*
X203498087Y-105616640D01*
X203789968Y-105470700D01*
X205004761Y-105470700D01*
X205004761Y-107065938D01*
G37*
G36*
X231092063Y-116354920D02*
G01*
X192179364Y-116354920D01*
X192179364Y-111611703D01*
X195485755Y-111611703D01*
X195485755Y-111709249D01*
X195523084Y-111799369D01*
X195592058Y-111868343D01*
X195682178Y-111905672D01*
X195730951Y-111910476D01*
X197385713Y-111910476D01*
X197385713Y-113315238D01*
X196302379Y-113315238D01*
X196253606Y-113320042D01*
X196163486Y-113357371D01*
X196094512Y-113426345D01*
X196057183Y-113516465D01*
X196057183Y-113614011D01*
X196094512Y-113704131D01*
X196163486Y-113773105D01*
X196253606Y-113810434D01*
X196302379Y-113815238D01*
X197385713Y-113815238D01*
X197385713Y-115410476D01*
X195730951Y-115410476D01*
X195682178Y-115415280D01*
X195592058Y-115452609D01*
X195523084Y-115521583D01*
X195485755Y-115611703D01*
X195485755Y-115709249D01*
X195523084Y-115799369D01*
X195592058Y-115868343D01*
X195682178Y-115905672D01*
X195730951Y-115910476D01*
X197635713Y-115910476D01*
X197684486Y-115905672D01*
X197774606Y-115868343D01*
X197843580Y-115799369D01*
X197880909Y-115709249D01*
X197885713Y-115660476D01*
X197885713Y-111992656D01*
X199104802Y-111992656D01*
X199104802Y-112090200D01*
X199142131Y-112180320D01*
X199211106Y-112249295D01*
X199301226Y-112286624D01*
X199398770Y-112286624D01*
X199488890Y-112249295D01*
X199526775Y-112218205D01*
X199675519Y-112069460D01*
X200152473Y-111910476D01*
X200452285Y-111910476D01*
X200929238Y-112069460D01*
X201239771Y-112379992D01*
X201399833Y-112700115D01*
X201576189Y-113405539D01*
X201576189Y-113915412D01*
X201399832Y-114620840D01*
X201239771Y-114940958D01*
X200929239Y-115251491D01*
X200452285Y-115410476D01*
X200152473Y-115410476D01*
X199675519Y-115251491D01*
X199526775Y-115102747D01*
X199488891Y-115071656D01*
X199398771Y-115034327D01*
X199301227Y-115034327D01*
X199211107Y-115071655D01*
X199142131Y-115140630D01*
X199104802Y-115230750D01*
X199104802Y-115328294D01*
X199142130Y-115418414D01*
X199173221Y-115456299D01*
X199363697Y-115646776D01*
X199401581Y-115677867D01*
X199409880Y-115681304D01*
X199416666Y-115687190D01*
X199461417Y-115707171D01*
X200032846Y-115897647D01*
X200057032Y-115903146D01*
X200063130Y-115905672D01*
X200071970Y-115906542D01*
X200080636Y-115908513D01*
X200087221Y-115908044D01*
X200111903Y-115910476D01*
X200492855Y-115910476D01*
X200517536Y-115908044D01*
X200524123Y-115908513D01*
X200532788Y-115906542D01*
X200541628Y-115905672D01*
X200547725Y-115903146D01*
X200571912Y-115897647D01*
X201143341Y-115707171D01*
X201188092Y-115687190D01*
X201194878Y-115681303D01*
X201203176Y-115677867D01*
X201241061Y-115646776D01*
X201622013Y-115265824D01*
X201637748Y-115246649D01*
X201642734Y-115242326D01*
X201647466Y-115234808D01*
X201653104Y-115227939D01*
X201655630Y-115221839D01*
X201668843Y-115200851D01*
X201859320Y-114819899D01*
X201860686Y-114816327D01*
X201861759Y-114814880D01*
X201869068Y-114794421D01*
X201876835Y-114774126D01*
X201876962Y-114772328D01*
X201878249Y-114768729D01*
X202068725Y-114006823D01*
X202069975Y-113998366D01*
X202071385Y-113994963D01*
X202073194Y-113976596D01*
X202075893Y-113958342D01*
X202075350Y-113954698D01*
X202076189Y-113946190D01*
X202076189Y-113374761D01*
X202075350Y-113366252D01*
X202075893Y-113362609D01*
X202073193Y-113344353D01*
X202071385Y-113325988D01*
X202069975Y-113322585D01*
X202068725Y-113314127D01*
X201878249Y-112552223D01*
X201876962Y-112548622D01*
X201876835Y-112546826D01*
X201869074Y-112526544D01*
X201861759Y-112506071D01*
X201860685Y-112504621D01*
X201859320Y-112501054D01*
X201668843Y-112120100D01*
X201655627Y-112099106D01*
X201653103Y-112093012D01*
X201647469Y-112086147D01*
X201642734Y-112078625D01*
X201637745Y-112074298D01*
X201622012Y-112055127D01*
X201241061Y-111674175D01*
X201224368Y-111660476D01*
X203290474Y-111660476D01*
X203290474Y-115660476D01*
X203291709Y-115673022D01*
X203291085Y-115677938D01*
X203292820Y-115684303D01*
X203295278Y-115709249D01*
X203308001Y-115739965D01*
X203316750Y-115772045D01*
X203326508Y-115784645D01*
X203332607Y-115799369D01*
X203356117Y-115822879D01*
X203376476Y-115849168D01*
X203390312Y-115857074D01*
X203401581Y-115868343D01*
X203432301Y-115881067D01*
X203461170Y-115897564D01*
X203476978Y-115899573D01*
X203491701Y-115905672D01*
X203524952Y-115905672D01*
X203557936Y-115909865D01*
X203573311Y-115905672D01*
X203589247Y-115905672D01*
X203619963Y-115892948D01*
X203652043Y-115884200D01*
X203664643Y-115874441D01*
X203679367Y-115868343D01*
X203702877Y-115844832D01*
X203729166Y-115824474D01*
X203743675Y-115804034D01*
X203748341Y-115799369D01*
X203750237Y-115794791D01*
X203757535Y-115784511D01*
X205576189Y-112601867D01*
X205576189Y-115660476D01*
X205580993Y-115709249D01*
X205618322Y-115799369D01*
X205687296Y-115868343D01*
X205777416Y-115905672D01*
X205874962Y-115905672D01*
X205965082Y-115868343D01*
X206034056Y-115799369D01*
X206071385Y-115709249D01*
X206076189Y-115660476D01*
X206076189Y-111660476D01*
X206074953Y-111647929D01*
X206075578Y-111643014D01*
X206073842Y-111636648D01*
X206071385Y-111611703D01*
X207295279Y-111611703D01*
X207295279Y-111709249D01*
X207332608Y-111799369D01*
X207401582Y-111868343D01*
X207491702Y-111905672D01*
X207540475Y-111910476D01*
X209195237Y-111910476D01*
X209195237Y-113315238D01*
X208111903Y-113315238D01*
X208063130Y-113320042D01*
X207973010Y-113357371D01*
X207904036Y-113426345D01*
X207866707Y-113516465D01*
X207866707Y-113614011D01*
X207904036Y-113704131D01*
X207973010Y-113773105D01*
X208063130Y-113810434D01*
X208111903Y-113815238D01*
X209195237Y-113815238D01*
X209195237Y-115410476D01*
X207540475Y-115410476D01*
X207491702Y-115415280D01*
X207401582Y-115452609D01*
X207332608Y-115521583D01*
X207295279Y-115611703D01*
X207295279Y-115709249D01*
X207332608Y-115799369D01*
X207401582Y-115868343D01*
X207491702Y-115905672D01*
X207540475Y-115910476D01*
X209445237Y-115910476D01*
X209494010Y-115905672D01*
X209584130Y-115868343D01*
X209653104Y-115799369D01*
X209690433Y-115709249D01*
X209695237Y-115660476D01*
X209695237Y-111660476D01*
X211099999Y-111660476D01*
X211099999Y-115660476D01*
X211104803Y-115709249D01*
X211142132Y-115799369D01*
X211211106Y-115868343D01*
X211301226Y-115905672D01*
X211398772Y-115905672D01*
X211488892Y-115868343D01*
X211557866Y-115799369D01*
X211595195Y-115709249D01*
X211599999Y-115660476D01*
X211599999Y-112422380D01*
X212814284Y-112422380D01*
X212814284Y-112993809D01*
X212819088Y-113042582D01*
X212822525Y-113050880D01*
X212823162Y-113059840D01*
X212840677Y-113105612D01*
X213031153Y-113486564D01*
X213044367Y-113507556D01*
X213046893Y-113513653D01*
X213052527Y-113520519D01*
X213057262Y-113528040D01*
X213062248Y-113532365D01*
X213077983Y-113551538D01*
X213268460Y-113742015D01*
X213287632Y-113757748D01*
X213291958Y-113762736D01*
X213299478Y-113767470D01*
X213306345Y-113773105D01*
X213312441Y-113775630D01*
X213333434Y-113788845D01*
X213714385Y-113979321D01*
X213760158Y-113996836D01*
X213769117Y-113997472D01*
X213777416Y-114000910D01*
X213826189Y-114005714D01*
X213917454Y-114005714D01*
X212859476Y-115517110D01*
X212835442Y-115559822D01*
X212814343Y-115655058D01*
X212831295Y-115751117D01*
X212883717Y-115833379D01*
X212963630Y-115889318D01*
X213058866Y-115910417D01*
X213154925Y-115893465D01*
X213237187Y-115841043D01*
X213269092Y-115803842D01*
X214527782Y-114005714D01*
X215099999Y-114005714D01*
X215099999Y-115660476D01*
X215104803Y-115709249D01*
X215142132Y-115799369D01*
X215211106Y-115868343D01*
X215301226Y-115905672D01*
X215398772Y-115905672D01*
X215488892Y-115868343D01*
X215557866Y-115799369D01*
X215595195Y-115709249D01*
X215599999Y-115660476D01*
X215599999Y-111660476D01*
X215595195Y-111611703D01*
X216819089Y-111611703D01*
X216819089Y-111709249D01*
X216856418Y-111799369D01*
X216925392Y-111868343D01*
X217015512Y-111905672D01*
X217064285Y-111910476D01*
X218719047Y-111910476D01*
X218719047Y-113315238D01*
X217635713Y-113315238D01*
X217586940Y-113320042D01*
X217496820Y-113357371D01*
X217427846Y-113426345D01*
X217390517Y-113516465D01*
X217390517Y-113614011D01*
X217427846Y-113704131D01*
X217496820Y-113773105D01*
X217586940Y-113810434D01*
X217635713Y-113815238D01*
X218719047Y-113815238D01*
X218719047Y-115410476D01*
X217064285Y-115410476D01*
X217015512Y-115415280D01*
X216925392Y-115452609D01*
X216856418Y-115521583D01*
X216819089Y-115611703D01*
X216819089Y-115709249D01*
X216856418Y-115799369D01*
X216925392Y-115868343D01*
X217015512Y-115905672D01*
X217064285Y-115910476D01*
X218969047Y-115910476D01*
X219017820Y-115905672D01*
X219107940Y-115868343D01*
X219176914Y-115799369D01*
X219214243Y-115709249D01*
X219219047Y-115660476D01*
X219219047Y-112422380D01*
X220433332Y-112422380D01*
X220433332Y-112993809D01*
X220438136Y-113042582D01*
X220441573Y-113050880D01*
X220442210Y-113059840D01*
X220459725Y-113105612D01*
X220650201Y-113486564D01*
X220663415Y-113507556D01*
X220665941Y-113513653D01*
X220671575Y-113520519D01*
X220676310Y-113528040D01*
X220681296Y-113532365D01*
X220697031Y-113551538D01*
X220887508Y-113742015D01*
X220906680Y-113757748D01*
X220911006Y-113762736D01*
X220918526Y-113767470D01*
X220925393Y-113773105D01*
X220931489Y-113775630D01*
X220952482Y-113788845D01*
X221333433Y-113979321D01*
X221379206Y-113996836D01*
X221388165Y-113997472D01*
X221396464Y-114000910D01*
X221445237Y-114005714D01*
X222719047Y-114005714D01*
X222719047Y-115660476D01*
X222723851Y-115709249D01*
X222761180Y-115799369D01*
X222830154Y-115868343D01*
X222920274Y-115905672D01*
X223017820Y-115905672D01*
X223107940Y-115868343D01*
X223176914Y-115799369D01*
X223214243Y-115709249D01*
X223219047Y-115660476D01*
X223219047Y-111660476D01*
X223219021Y-111660214D01*
X224242856Y-111660214D01*
X224261786Y-111755905D01*
X224284843Y-111799151D01*
X225525726Y-113660476D01*
X224284843Y-115521801D01*
X224261786Y-115565047D01*
X224242856Y-115660738D01*
X224261986Y-115756388D01*
X224316264Y-115837437D01*
X224397427Y-115891546D01*
X224493118Y-115910476D01*
X224588768Y-115891346D01*
X224669817Y-115837068D01*
X224700869Y-115799151D01*
X225826189Y-114111170D01*
X226951510Y-115799151D01*
X226982562Y-115837068D01*
X227063611Y-115891346D01*
X227159261Y-115910476D01*
X227254952Y-115891546D01*
X227336115Y-115837437D01*
X227390393Y-115756388D01*
X227409523Y-115660738D01*
X227390593Y-115565047D01*
X227367536Y-115521801D01*
X226126652Y-113660476D01*
X227367536Y-111799151D01*
X227390593Y-111755905D01*
X227409523Y-111660214D01*
X227399821Y-111611703D01*
X228247661Y-111611703D01*
X228247661Y-111709249D01*
X228284990Y-111799369D01*
X228353964Y-111868343D01*
X228444084Y-111905672D01*
X228492857Y-111910476D01*
X230147619Y-111910476D01*
X230147619Y-113315238D01*
X229064285Y-113315238D01*
X229015512Y-113320042D01*
X228925392Y-113357371D01*
X228856418Y-113426345D01*
X228819089Y-113516465D01*
X228819089Y-113614011D01*
X228856418Y-113704131D01*
X228925392Y-113773105D01*
X229015512Y-113810434D01*
X229064285Y-113815238D01*
X230147619Y-113815238D01*
X230147619Y-115410476D01*
X228492857Y-115410476D01*
X228444084Y-115415280D01*
X228353964Y-115452609D01*
X228284990Y-115521583D01*
X228247661Y-115611703D01*
X228247661Y-115709249D01*
X228284990Y-115799369D01*
X228353964Y-115868343D01*
X228444084Y-115905672D01*
X228492857Y-115910476D01*
X230397619Y-115910476D01*
X230446392Y-115905672D01*
X230536512Y-115868343D01*
X230605486Y-115799369D01*
X230642815Y-115709249D01*
X230647619Y-115660476D01*
X230647619Y-111660476D01*
X230642815Y-111611703D01*
X230605486Y-111521583D01*
X230536512Y-111452609D01*
X230446392Y-111415280D01*
X230397619Y-111410476D01*
X228492857Y-111410476D01*
X228444084Y-111415280D01*
X228353964Y-111452609D01*
X228284990Y-111521583D01*
X228247661Y-111611703D01*
X227399821Y-111611703D01*
X227390393Y-111564564D01*
X227336115Y-111483515D01*
X227254952Y-111429406D01*
X227159261Y-111410476D01*
X227063611Y-111429606D01*
X226982562Y-111483884D01*
X226951510Y-111521801D01*
X225826189Y-113209781D01*
X224700869Y-111521801D01*
X224669817Y-111483884D01*
X224588768Y-111429606D01*
X224493118Y-111410476D01*
X224397427Y-111429406D01*
X224316264Y-111483515D01*
X224261986Y-111564564D01*
X224242856Y-111660214D01*
X223219021Y-111660214D01*
X223214243Y-111611703D01*
X223176914Y-111521583D01*
X223107940Y-111452609D01*
X223017820Y-111415280D01*
X222969047Y-111410476D01*
X221445237Y-111410476D01*
X221396464Y-111415280D01*
X221388165Y-111418717D01*
X221379206Y-111419354D01*
X221333433Y-111436869D01*
X220952482Y-111627345D01*
X220931493Y-111640557D01*
X220925393Y-111643084D01*
X220918522Y-111648722D01*
X220911006Y-111653454D01*
X220906682Y-111658439D01*
X220887508Y-111674175D01*
X220697032Y-111864651D01*
X220681297Y-111883823D01*
X220676310Y-111888149D01*
X220671577Y-111895667D01*
X220665941Y-111902535D01*
X220663414Y-111908634D01*
X220650201Y-111929625D01*
X220459725Y-112310577D01*
X220442210Y-112356349D01*
X220441573Y-112365308D01*
X220438136Y-112373607D01*
X220433332Y-112422380D01*
X219219047Y-112422380D01*
X219219047Y-111660476D01*
X219214243Y-111611703D01*
X219176914Y-111521583D01*
X219107940Y-111452609D01*
X219017820Y-111415280D01*
X218969047Y-111410476D01*
X217064285Y-111410476D01*
X217015512Y-111415280D01*
X216925392Y-111452609D01*
X216856418Y-111521583D01*
X216819089Y-111611703D01*
X215595195Y-111611703D01*
X215557866Y-111521583D01*
X215488892Y-111452609D01*
X215398772Y-111415280D01*
X215349999Y-111410476D01*
X213826189Y-111410476D01*
X213777416Y-111415280D01*
X213769117Y-111418717D01*
X213760158Y-111419354D01*
X213714385Y-111436869D01*
X213333434Y-111627345D01*
X213312445Y-111640557D01*
X213306345Y-111643084D01*
X213299474Y-111648722D01*
X213291958Y-111653454D01*
X213287634Y-111658439D01*
X213268460Y-111674175D01*
X213077984Y-111864651D01*
X213062249Y-111883823D01*
X213057262Y-111888149D01*
X213052529Y-111895667D01*
X213046893Y-111902535D01*
X213044366Y-111908634D01*
X213031153Y-111929625D01*
X212840677Y-112310577D01*
X212823162Y-112356349D01*
X212822525Y-112365308D01*
X212819088Y-112373607D01*
X212814284Y-112422380D01*
X211599999Y-112422380D01*
X211599999Y-111660476D01*
X211595195Y-111611703D01*
X211557866Y-111521583D01*
X211488892Y-111452609D01*
X211398772Y-111415280D01*
X211301226Y-111415280D01*
X211211106Y-111452609D01*
X211142132Y-111521583D01*
X211104803Y-111611703D01*
X211099999Y-111660476D01*
X209695237Y-111660476D01*
X209690433Y-111611703D01*
X209653104Y-111521583D01*
X209584130Y-111452609D01*
X209494010Y-111415280D01*
X209445237Y-111410476D01*
X207540475Y-111410476D01*
X207491702Y-111415280D01*
X207401582Y-111452609D01*
X207332608Y-111521583D01*
X207295279Y-111611703D01*
X206071385Y-111611703D01*
X206058661Y-111580986D01*
X206049913Y-111548907D01*
X206040154Y-111536306D01*
X206034056Y-111521583D01*
X206010545Y-111498072D01*
X205990187Y-111471784D01*
X205976350Y-111463877D01*
X205965082Y-111452609D01*
X205934364Y-111439885D01*
X205905494Y-111423388D01*
X205889684Y-111421378D01*
X205874962Y-111415280D01*
X205841717Y-111415280D01*
X205808727Y-111411086D01*
X205793349Y-111415280D01*
X205777416Y-111415280D01*
X205746701Y-111428002D01*
X205714620Y-111436752D01*
X205702019Y-111446510D01*
X205687296Y-111452609D01*
X205663783Y-111476121D01*
X205637498Y-111496478D01*
X205622988Y-111516916D01*
X205618322Y-111521583D01*
X205616425Y-111526161D01*
X205609128Y-111536441D01*
X203790474Y-114719084D01*
X203790474Y-111660476D01*
X203785670Y-111611703D01*
X203748341Y-111521583D01*
X203679367Y-111452609D01*
X203589247Y-111415280D01*
X203491701Y-111415280D01*
X203401581Y-111452609D01*
X203332607Y-111521583D01*
X203295278Y-111611703D01*
X203290474Y-111660476D01*
X201224368Y-111660476D01*
X201203176Y-111643085D01*
X201194878Y-111639648D01*
X201188092Y-111633762D01*
X201143341Y-111613781D01*
X200571912Y-111423305D01*
X200547725Y-111417805D01*
X200541628Y-111415280D01*
X200532788Y-111414409D01*
X200524123Y-111412439D01*
X200517536Y-111412907D01*
X200492855Y-111410476D01*
X200111903Y-111410476D01*
X200087221Y-111412907D01*
X200080636Y-111412439D01*
X200071970Y-111414409D01*
X200063130Y-111415280D01*
X200057032Y-111417805D01*
X200032846Y-111423305D01*
X199461417Y-111613781D01*
X199416666Y-111633762D01*
X199409881Y-111639646D01*
X199401582Y-111643084D01*
X199363697Y-111674175D01*
X199173221Y-111864651D01*
X199142131Y-111902536D01*
X199104802Y-111992656D01*
X197885713Y-111992656D01*
X197885713Y-111660476D01*
X197880909Y-111611703D01*
X197843580Y-111521583D01*
X197774606Y-111452609D01*
X197684486Y-111415280D01*
X197635713Y-111410476D01*
X195730951Y-111410476D01*
X195682178Y-111415280D01*
X195592058Y-111452609D01*
X195523084Y-111521583D01*
X195485755Y-111611703D01*
X192179364Y-111611703D01*
X192179364Y-107506414D01*
X192623808Y-107506414D01*
X192623808Y-108839747D01*
X192628612Y-108888520D01*
X192665941Y-108978640D01*
X192665944Y-108978643D01*
X192697031Y-109016523D01*
X192887507Y-109207000D01*
X192925391Y-109238091D01*
X192933690Y-109241528D01*
X192940476Y-109247414D01*
X192985227Y-109267395D01*
X193556656Y-109457871D01*
X193580842Y-109463370D01*
X193586940Y-109465896D01*
X193595780Y-109466766D01*
X193604446Y-109468737D01*
X193611031Y-109468268D01*
X193635713Y-109470700D01*
X194016665Y-109470700D01*
X194041346Y-109468268D01*
X194047933Y-109468737D01*
X194056598Y-109466766D01*
X194065438Y-109465896D01*
X194071535Y-109463370D01*
X194095722Y-109457871D01*
X194667151Y-109267395D01*
X194711902Y-109247414D01*
X194718688Y-109241527D01*
X194726986Y-109238091D01*
X194764871Y-109207000D01*
X195145823Y-108826048D01*
X195161558Y-108806873D01*
X195166544Y-108802550D01*
X195171276Y-108795032D01*
X195176914Y-108788163D01*
X195179440Y-108782063D01*
X195192653Y-108761075D01*
X195383130Y-108380123D01*
X195384496Y-108376551D01*
X195385569Y-108375104D01*
X195392878Y-108354645D01*
X195400645Y-108334350D01*
X195400772Y-108332552D01*
X195402059Y-108328953D01*
X195592535Y-107567047D01*
X195593785Y-107558590D01*
X195595195Y-107555187D01*
X195597004Y-107536820D01*
X195599703Y-107518566D01*
X195599160Y-107514922D01*
X195599999Y-107506414D01*
X195599999Y-106934985D01*
X195599160Y-106926476D01*
X195599703Y-106922833D01*
X195597003Y-106904577D01*
X195595195Y-106886212D01*
X195593785Y-106882809D01*
X195592535Y-106874351D01*
X195402059Y-106112447D01*
X195400772Y-106108846D01*
X195400645Y-106107050D01*
X195392884Y-106086768D01*
X195385569Y-106066295D01*
X195384495Y-106064845D01*
X195383130Y-106061278D01*
X195192653Y-105680324D01*
X195179437Y-105659330D01*
X195176913Y-105653236D01*
X195171279Y-105646371D01*
X195166544Y-105638849D01*
X195161555Y-105634522D01*
X195145822Y-105615351D01*
X194764871Y-105234399D01*
X194748178Y-105220700D01*
X196814284Y-105220700D01*
X196814284Y-109220700D01*
X196815519Y-109233246D01*
X196814895Y-109238162D01*
X196816630Y-109244527D01*
X196819088Y-109269473D01*
X196831811Y-109300189D01*
X196840560Y-109332269D01*
X196850318Y-109344869D01*
X196856417Y-109359593D01*
X196879927Y-109383103D01*
X196900286Y-109409392D01*
X196914122Y-109417298D01*
X196925391Y-109428567D01*
X196956111Y-109441291D01*
X196984980Y-109457788D01*
X197000788Y-109459797D01*
X197015511Y-109465896D01*
X197048762Y-109465896D01*
X197081746Y-109470089D01*
X197097121Y-109465896D01*
X197113057Y-109465896D01*
X197143773Y-109453172D01*
X197175853Y-109444424D01*
X197188453Y-109434665D01*
X197203177Y-109428567D01*
X197226687Y-109405056D01*
X197252976Y-109384698D01*
X197267485Y-109364258D01*
X197272151Y-109359593D01*
X197274047Y-109355015D01*
X197281345Y-109344735D01*
X199099999Y-106162091D01*
X199099999Y-109220700D01*
X199104803Y-109269473D01*
X199142132Y-109359593D01*
X199211106Y-109428567D01*
X199301226Y-109465896D01*
X199398772Y-109465896D01*
X199488892Y-109428567D01*
X199557866Y-109359593D01*
X199595195Y-109269473D01*
X199599999Y-109220700D01*
X199599999Y-105220700D01*
X201004761Y-105220700D01*
X201004761Y-109220700D01*
X201009565Y-109269473D01*
X201046894Y-109359593D01*
X201115868Y-109428567D01*
X201205988Y-109465896D01*
X201303534Y-109465896D01*
X201393654Y-109428567D01*
X201462628Y-109359593D01*
X201499957Y-109269473D01*
X201504761Y-109220700D01*
X201504761Y-105982604D01*
X202719046Y-105982604D01*
X202719046Y-106554033D01*
X202723850Y-106602806D01*
X202727287Y-106611104D01*
X202727924Y-106620064D01*
X202745439Y-106665836D01*
X202935915Y-107046788D01*
X202949129Y-107067780D01*
X202951655Y-107073877D01*
X202957289Y-107080743D01*
X202962024Y-107088264D01*
X202967010Y-107092589D01*
X202982745Y-107111762D01*
X203173222Y-107302239D01*
X203192394Y-107317972D01*
X203196720Y-107322960D01*
X203204240Y-107327694D01*
X203211107Y-107333329D01*
X203217203Y-107335854D01*
X203238196Y-107349069D01*
X203619147Y-107539545D01*
X203664920Y-107557060D01*
X203673879Y-107557696D01*
X203682178Y-107561134D01*
X203730951Y-107565938D01*
X203822216Y-107565938D01*
X202764238Y-109077334D01*
X202740204Y-109120046D01*
X202719105Y-109215282D01*
X202736057Y-109311341D01*
X202788479Y-109393603D01*
X202868392Y-109449542D01*
X202963628Y-109470641D01*
X203059687Y-109453689D01*
X203141949Y-109401267D01*
X203173854Y-109364066D01*
X204432544Y-107565938D01*
X205004761Y-107565938D01*
X205004761Y-109220700D01*
X205009565Y-109269473D01*
X205046894Y-109359593D01*
X205115868Y-109428567D01*
X205205988Y-109465896D01*
X205303534Y-109465896D01*
X205393654Y-109428567D01*
X205462628Y-109359593D01*
X205499957Y-109269473D01*
X205504761Y-109220700D01*
X205504761Y-105220700D01*
X205499957Y-105171927D01*
X206723851Y-105171927D01*
X206723851Y-105269473D01*
X206761180Y-105359593D01*
X206830154Y-105428567D01*
X206920274Y-105465896D01*
X206969047Y-105470700D01*
X208623809Y-105470700D01*
X208623809Y-106875462D01*
X207540475Y-106875462D01*
X207491702Y-106880266D01*
X207401582Y-106917595D01*
X207332608Y-106986569D01*
X207295279Y-107076689D01*
X207295279Y-107174235D01*
X207332608Y-107264355D01*
X207401582Y-107333329D01*
X207491702Y-107370658D01*
X207540475Y-107375462D01*
X208623809Y-107375462D01*
X208623809Y-108970700D01*
X206969047Y-108970700D01*
X206920274Y-108975504D01*
X206830154Y-109012833D01*
X206761180Y-109081807D01*
X206723851Y-109171927D01*
X206723851Y-109269473D01*
X206761180Y-109359593D01*
X206830154Y-109428567D01*
X206920274Y-109465896D01*
X206969047Y-109470700D01*
X208873809Y-109470700D01*
X208922582Y-109465896D01*
X209012702Y-109428567D01*
X209081676Y-109359593D01*
X209119005Y-109269473D01*
X209123809Y-109220700D01*
X209123809Y-105220700D01*
X209119005Y-105171927D01*
X210342899Y-105171927D01*
X210342899Y-105269473D01*
X210380228Y-105359593D01*
X210449202Y-105428567D01*
X210539322Y-105465896D01*
X210588095Y-105470700D01*
X212242857Y-105470700D01*
X212242857Y-106875462D01*
X211159523Y-106875462D01*
X211110750Y-106880266D01*
X211020630Y-106917595D01*
X210951656Y-106986569D01*
X210914327Y-107076689D01*
X210914327Y-107174235D01*
X210951656Y-107264355D01*
X211020630Y-107333329D01*
X211110750Y-107370658D01*
X211159523Y-107375462D01*
X212242857Y-107375462D01*
X212242857Y-108970700D01*
X210588095Y-108970700D01*
X210539322Y-108975504D01*
X210449202Y-109012833D01*
X210380228Y-109081807D01*
X210342899Y-109171927D01*
X210342899Y-109269473D01*
X210380228Y-109359593D01*
X210449202Y-109428567D01*
X210539322Y-109465896D01*
X210588095Y-109470700D01*
X212492857Y-109470700D01*
X212541630Y-109465896D01*
X212631750Y-109428567D01*
X212700724Y-109359593D01*
X212738053Y-109269473D01*
X212742857Y-109220700D01*
X212742857Y-105220700D01*
X214147618Y-105220700D01*
X214147618Y-109220700D01*
X214148853Y-109233246D01*
X214148229Y-109238162D01*
X214149964Y-109244527D01*
X214152422Y-109269473D01*
X214165145Y-109300189D01*
X214173894Y-109332269D01*
X214183652Y-109344869D01*
X214189751Y-109359593D01*
X214213261Y-109383103D01*
X214233620Y-109409392D01*
X214247456Y-109417298D01*
X214258725Y-109428567D01*
X214289445Y-109441291D01*
X214318314Y-109457788D01*
X214334122Y-109459797D01*
X214348845Y-109465896D01*
X214382096Y-109465896D01*
X214415080Y-109470089D01*
X214430455Y-109465896D01*
X214446391Y-109465896D01*
X214477107Y-109453172D01*
X214509187Y-109444424D01*
X214521787Y-109434665D01*
X214536511Y-109428567D01*
X214560021Y-109405056D01*
X214586310Y-109384698D01*
X214600819Y-109364258D01*
X214605485Y-109359593D01*
X214607381Y-109355015D01*
X214614679Y-109344735D01*
X216433333Y-106162091D01*
X216433333Y-109220700D01*
X216438137Y-109269473D01*
X216475466Y-109359593D01*
X216544440Y-109428567D01*
X216634560Y-109465896D01*
X216732106Y-109465896D01*
X216822226Y-109428567D01*
X216891200Y-109359593D01*
X216928529Y-109269473D01*
X216933333Y-109220700D01*
X216933333Y-105220700D01*
X218338095Y-105220700D01*
X218338095Y-109220700D01*
X218342899Y-109269473D01*
X218380228Y-109359593D01*
X218449202Y-109428567D01*
X218539322Y-109465896D01*
X218636868Y-109465896D01*
X218726988Y-109428567D01*
X218795962Y-109359593D01*
X218833291Y-109269473D01*
X218838095Y-109220700D01*
X218838095Y-107506414D01*
X220052380Y-107506414D01*
X220052380Y-108839747D01*
X220057184Y-108888520D01*
X220094513Y-108978640D01*
X220094516Y-108978643D01*
X220125603Y-109016523D01*
X220316079Y-109207000D01*
X220353963Y-109238091D01*
X220362262Y-109241528D01*
X220369048Y-109247414D01*
X220413799Y-109267395D01*
X220985228Y-109457871D01*
X221009414Y-109463370D01*
X221015512Y-109465896D01*
X221024352Y-109466766D01*
X221033018Y-109468737D01*
X221039603Y-109468268D01*
X221064285Y-109470700D01*
X221445237Y-109470700D01*
X221469918Y-109468268D01*
X221476505Y-109468737D01*
X221485170Y-109466766D01*
X221494010Y-109465896D01*
X221500107Y-109463370D01*
X221524294Y-109457871D01*
X222095723Y-109267395D01*
X222140474Y-109247414D01*
X222147260Y-109241527D01*
X222155558Y-109238091D01*
X222193443Y-109207000D01*
X222574395Y-108826048D01*
X222590130Y-108806873D01*
X222595116Y-108802550D01*
X222599848Y-108795032D01*
X222605486Y-108788163D01*
X222608012Y-108782063D01*
X222621225Y-108761075D01*
X222811702Y-108380123D01*
X222813068Y-108376551D01*
X222814141Y-108375104D01*
X222821450Y-108354645D01*
X222829217Y-108334350D01*
X222829344Y-108332552D01*
X222830631Y-108328953D01*
X223021107Y-107567047D01*
X223022357Y-107558590D01*
X223023767Y-107555187D01*
X223025576Y-107536820D01*
X223028275Y-107518566D01*
X223027732Y-107514922D01*
X223028571Y-107506414D01*
X223028571Y-106934985D01*
X223027732Y-106926476D01*
X223028275Y-106922833D01*
X223025575Y-106904577D01*
X223023767Y-106886212D01*
X223022357Y-106882809D01*
X223021107Y-106874351D01*
X222830631Y-106112447D01*
X222829344Y-106108846D01*
X222829217Y-106107050D01*
X222821456Y-106086768D01*
X222814141Y-106066295D01*
X222813067Y-106064845D01*
X222811702Y-106061278D01*
X222621225Y-105680324D01*
X222608009Y-105659330D01*
X222605485Y-105653236D01*
X222599851Y-105646371D01*
X222595116Y-105638849D01*
X222590127Y-105634522D01*
X222574394Y-105615351D01*
X222193443Y-105234399D01*
X222176750Y-105220700D01*
X224242856Y-105220700D01*
X224242856Y-109220700D01*
X224244091Y-109233246D01*
X224243467Y-109238162D01*
X224245202Y-109244527D01*
X224247660Y-109269473D01*
X224260383Y-109300189D01*
X224269132Y-109332269D01*
X224278890Y-109344869D01*
X224284989Y-109359593D01*
X224308499Y-109383103D01*
X224328858Y-109409392D01*
X224342694Y-109417298D01*
X224353963Y-109428567D01*
X224384683Y-109441291D01*
X224413552Y-109457788D01*
X224429360Y-109459797D01*
X224444083Y-109465896D01*
X224477334Y-109465896D01*
X224510318Y-109470089D01*
X224525693Y-109465896D01*
X224541629Y-109465896D01*
X224572345Y-109453172D01*
X224604425Y-109444424D01*
X224617025Y-109434665D01*
X224631749Y-109428567D01*
X224655259Y-109405056D01*
X224681548Y-109384698D01*
X224696057Y-109364258D01*
X224700723Y-109359593D01*
X224702619Y-109355015D01*
X224709917Y-109344735D01*
X226528571Y-106162091D01*
X226528571Y-109220700D01*
X226533375Y-109269473D01*
X226570704Y-109359593D01*
X226639678Y-109428567D01*
X226729798Y-109465896D01*
X226827344Y-109465896D01*
X226917464Y-109428567D01*
X226986438Y-109359593D01*
X227023767Y-109269473D01*
X227028571Y-109220700D01*
X227028571Y-105220700D01*
X227027335Y-105208153D01*
X227027960Y-105203238D01*
X227026224Y-105196872D01*
X227023767Y-105171927D01*
X228247661Y-105171927D01*
X228247661Y-105269473D01*
X228284990Y-105359593D01*
X228353964Y-105428567D01*
X228444084Y-105465896D01*
X228492857Y-105470700D01*
X230147619Y-105470700D01*
X230147619Y-106875462D01*
X229064285Y-106875462D01*
X229015512Y-106880266D01*
X228925392Y-106917595D01*
X228856418Y-106986569D01*
X228819089Y-107076689D01*
X228819089Y-107174235D01*
X228856418Y-107264355D01*
X228925392Y-107333329D01*
X229015512Y-107370658D01*
X229064285Y-107375462D01*
X230147619Y-107375462D01*
X230147619Y-108970700D01*
X228492857Y-108970700D01*
X228444084Y-108975504D01*
X228353964Y-109012833D01*
X228284990Y-109081807D01*
X228247661Y-109171927D01*
X228247661Y-109269473D01*
X228284990Y-109359593D01*
X228353964Y-109428567D01*
X228444084Y-109465896D01*
X228492857Y-109470700D01*
X230397619Y-109470700D01*
X230446392Y-109465896D01*
X230536512Y-109428567D01*
X230605486Y-109359593D01*
X230642815Y-109269473D01*
X230647619Y-109220700D01*
X230647619Y-105220700D01*
X230642815Y-105171927D01*
X230605486Y-105081807D01*
X230536512Y-105012833D01*
X230446392Y-104975504D01*
X230397619Y-104970700D01*
X228492857Y-104970700D01*
X228444084Y-104975504D01*
X228353964Y-105012833D01*
X228284990Y-105081807D01*
X228247661Y-105171927D01*
X227023767Y-105171927D01*
X227011043Y-105141210D01*
X227002295Y-105109131D01*
X226992536Y-105096530D01*
X226986438Y-105081807D01*
X226962927Y-105058296D01*
X226942569Y-105032008D01*
X226928732Y-105024101D01*
X226917464Y-105012833D01*
X226886746Y-105000109D01*
X226857876Y-104983612D01*
X226842066Y-104981602D01*
X226827344Y-104975504D01*
X226794099Y-104975504D01*
X226761109Y-104971310D01*
X226745731Y-104975504D01*
X226729798Y-104975504D01*
X226699083Y-104988226D01*
X226667002Y-104996976D01*
X226654401Y-105006734D01*
X226639678Y-105012833D01*
X226616165Y-105036345D01*
X226589880Y-105056702D01*
X226575370Y-105077140D01*
X226570704Y-105081807D01*
X226568807Y-105086385D01*
X226561510Y-105096665D01*
X224742856Y-108279308D01*
X224742856Y-105220700D01*
X224738052Y-105171927D01*
X224700723Y-105081807D01*
X224631749Y-105012833D01*
X224541629Y-104975504D01*
X224444083Y-104975504D01*
X224353963Y-105012833D01*
X224284989Y-105081807D01*
X224247660Y-105171927D01*
X224242856Y-105220700D01*
X222176750Y-105220700D01*
X222155558Y-105203309D01*
X222147260Y-105199872D01*
X222140474Y-105193986D01*
X222095723Y-105174005D01*
X221524294Y-104983529D01*
X221500107Y-104978029D01*
X221494010Y-104975504D01*
X221485170Y-104974633D01*
X221476505Y-104972663D01*
X221469918Y-104973131D01*
X221445237Y-104970700D01*
X220873809Y-104970700D01*
X220825036Y-104975504D01*
X220816737Y-104978941D01*
X220807778Y-104979578D01*
X220762006Y-104997093D01*
X220381053Y-105187569D01*
X220339577Y-105213678D01*
X220275666Y-105287369D01*
X220244819Y-105379907D01*
X220251734Y-105477207D01*
X220295358Y-105564455D01*
X220369049Y-105628366D01*
X220461587Y-105659213D01*
X220558887Y-105652298D01*
X220604659Y-105634783D01*
X220932826Y-105470700D01*
X221404667Y-105470700D01*
X221881620Y-105629684D01*
X222192153Y-105940216D01*
X222352215Y-106260339D01*
X222528571Y-106965763D01*
X222528571Y-107475636D01*
X222352214Y-108181064D01*
X222192153Y-108501182D01*
X221881621Y-108811715D01*
X221404667Y-108970700D01*
X221104855Y-108970700D01*
X220627901Y-108811715D01*
X220552380Y-108736194D01*
X220552380Y-107756414D01*
X221064285Y-107756414D01*
X221113058Y-107751610D01*
X221203178Y-107714281D01*
X221272152Y-107645307D01*
X221309481Y-107555187D01*
X221309481Y-107457641D01*
X221272152Y-107367521D01*
X221203178Y-107298547D01*
X221113058Y-107261218D01*
X221064285Y-107256414D01*
X220302380Y-107256414D01*
X220253607Y-107261218D01*
X220163487Y-107298547D01*
X220094513Y-107367521D01*
X220057184Y-107457641D01*
X220052380Y-107506414D01*
X218838095Y-107506414D01*
X218838095Y-105220700D01*
X218833291Y-105171927D01*
X218795962Y-105081807D01*
X218726988Y-105012833D01*
X218636868Y-104975504D01*
X218539322Y-104975504D01*
X218449202Y-105012833D01*
X218380228Y-105081807D01*
X218342899Y-105171927D01*
X218338095Y-105220700D01*
X216933333Y-105220700D01*
X216932097Y-105208153D01*
X216932722Y-105203238D01*
X216930986Y-105196872D01*
X216928529Y-105171927D01*
X216915805Y-105141210D01*
X216907057Y-105109131D01*
X216897298Y-105096530D01*
X216891200Y-105081807D01*
X216867689Y-105058296D01*
X216847331Y-105032008D01*
X216833494Y-105024101D01*
X216822226Y-105012833D01*
X216791508Y-105000109D01*
X216762638Y-104983612D01*
X216746828Y-104981602D01*
X216732106Y-104975504D01*
X216698861Y-104975504D01*
X216665871Y-104971310D01*
X216650493Y-104975504D01*
X216634560Y-104975504D01*
X216603845Y-104988226D01*
X216571764Y-104996976D01*
X216559163Y-105006734D01*
X216544440Y-105012833D01*
X216520927Y-105036345D01*
X216494642Y-105056702D01*
X216480132Y-105077140D01*
X216475466Y-105081807D01*
X216473569Y-105086385D01*
X216466272Y-105096665D01*
X214647618Y-108279308D01*
X214647618Y-105220700D01*
X214642814Y-105171927D01*
X214605485Y-105081807D01*
X214536511Y-105012833D01*
X214446391Y-104975504D01*
X214348845Y-104975504D01*
X214258725Y-105012833D01*
X214189751Y-105081807D01*
X214152422Y-105171927D01*
X214147618Y-105220700D01*
X212742857Y-105220700D01*
X212738053Y-105171927D01*
X212700724Y-105081807D01*
X212631750Y-105012833D01*
X212541630Y-104975504D01*
X212492857Y-104970700D01*
X210588095Y-104970700D01*
X210539322Y-104975504D01*
X210449202Y-105012833D01*
X210380228Y-105081807D01*
X210342899Y-105171927D01*
X209119005Y-105171927D01*
X209081676Y-105081807D01*
X209012702Y-105012833D01*
X208922582Y-104975504D01*
X208873809Y-104970700D01*
X206969047Y-104970700D01*
X206920274Y-104975504D01*
X206830154Y-105012833D01*
X206761180Y-105081807D01*
X206723851Y-105171927D01*
X205499957Y-105171927D01*
X205462628Y-105081807D01*
X205393654Y-105012833D01*
X205303534Y-104975504D01*
X205254761Y-104970700D01*
X203730951Y-104970700D01*
X203682178Y-104975504D01*
X203673879Y-104978941D01*
X203664920Y-104979578D01*
X203619147Y-104997093D01*
X203238196Y-105187569D01*
X203217207Y-105200781D01*
X203211107Y-105203308D01*
X203204236Y-105208946D01*
X203196720Y-105213678D01*
X203192396Y-105218663D01*
X203173222Y-105234399D01*
X202982746Y-105424875D01*
X202967011Y-105444047D01*
X202962024Y-105448373D01*
X202957291Y-105455891D01*
X202951655Y-105462759D01*
X202949128Y-105468858D01*
X202935915Y-105489849D01*
X202745439Y-105870801D01*
X202727924Y-105916573D01*
X202727287Y-105925532D01*
X202723850Y-105933831D01*
X202719046Y-105982604D01*
X201504761Y-105982604D01*
X201504761Y-105220700D01*
X201499957Y-105171927D01*
X201462628Y-105081807D01*
X201393654Y-105012833D01*
X201303534Y-104975504D01*
X201205988Y-104975504D01*
X201115868Y-105012833D01*
X201046894Y-105081807D01*
X201009565Y-105171927D01*
X201004761Y-105220700D01*
X199599999Y-105220700D01*
X199598763Y-105208153D01*
X199599388Y-105203238D01*
X199597652Y-105196872D01*
X199595195Y-105171927D01*
X199582471Y-105141210D01*
X199573723Y-105109131D01*
X199563964Y-105096530D01*
X199557866Y-105081807D01*
X199534355Y-105058296D01*
X199513997Y-105032008D01*
X199500160Y-105024101D01*
X199488892Y-105012833D01*
X199458174Y-105000109D01*
X199429304Y-104983612D01*
X199413494Y-104981602D01*
X199398772Y-104975504D01*
X199365527Y-104975504D01*
X199332537Y-104971310D01*
X199317159Y-104975504D01*
X199301226Y-104975504D01*
X199270511Y-104988226D01*
X199238430Y-104996976D01*
X199225829Y-105006734D01*
X199211106Y-105012833D01*
X199187593Y-105036345D01*
X199161308Y-105056702D01*
X199146798Y-105077140D01*
X199142132Y-105081807D01*
X199140235Y-105086385D01*
X199132938Y-105096665D01*
X197314284Y-108279308D01*
X197314284Y-105220700D01*
X197309480Y-105171927D01*
X197272151Y-105081807D01*
X197203177Y-105012833D01*
X197113057Y-104975504D01*
X197015511Y-104975504D01*
X196925391Y-105012833D01*
X196856417Y-105081807D01*
X196819088Y-105171927D01*
X196814284Y-105220700D01*
X194748178Y-105220700D01*
X194726986Y-105203309D01*
X194718688Y-105199872D01*
X194711902Y-105193986D01*
X194667151Y-105174005D01*
X194095722Y-104983529D01*
X194071535Y-104978029D01*
X194065438Y-104975504D01*
X194056598Y-104974633D01*
X194047933Y-104972663D01*
X194041346Y-104973131D01*
X194016665Y-104970700D01*
X193445237Y-104970700D01*
X193396464Y-104975504D01*
X193388165Y-104978941D01*
X193379206Y-104979578D01*
X193333434Y-104997093D01*
X192952481Y-105187569D01*
X192911005Y-105213678D01*
X192847094Y-105287369D01*
X192816247Y-105379907D01*
X192823162Y-105477207D01*
X192866786Y-105564455D01*
X192940477Y-105628366D01*
X193033015Y-105659213D01*
X193130315Y-105652298D01*
X193176087Y-105634783D01*
X193504254Y-105470700D01*
X193976095Y-105470700D01*
X194453048Y-105629684D01*
X194763581Y-105940216D01*
X194923643Y-106260339D01*
X195099999Y-106965763D01*
X195099999Y-107475636D01*
X194923642Y-108181064D01*
X194763581Y-108501182D01*
X194453049Y-108811715D01*
X193976095Y-108970700D01*
X193676283Y-108970700D01*
X193199329Y-108811715D01*
X193123808Y-108736194D01*
X193123808Y-107756414D01*
X193635713Y-107756414D01*
X193684486Y-107751610D01*
X193774606Y-107714281D01*
X193843580Y-107645307D01*
X193880909Y-107555187D01*
X193880909Y-107457641D01*
X193843580Y-107367521D01*
X193774606Y-107298547D01*
X193684486Y-107261218D01*
X193635713Y-107256414D01*
X192873808Y-107256414D01*
X192825035Y-107261218D01*
X192734915Y-107298547D01*
X192665941Y-107367521D01*
X192628612Y-107457641D01*
X192623808Y-107506414D01*
X192179364Y-107506414D01*
X192179364Y-104526256D01*
X231092063Y-104526256D01*
X231092063Y-116354920D01*
G37*
D11*
G36*
X230060652Y-121882057D02*
G01*
X229545960Y-121882057D01*
X229426742Y-121822448D01*
X229377404Y-121773108D01*
X229317795Y-121653890D01*
X229317795Y-121462603D01*
X229377404Y-121343384D01*
X229426742Y-121294047D01*
X229545960Y-121234438D01*
X230060652Y-121234438D01*
X230060652Y-121882057D01*
G37*
G36*
X217393984Y-119614550D02*
G01*
X217150250Y-119614550D01*
X216940114Y-119544505D01*
X216805974Y-119410363D01*
X216735068Y-119268552D01*
X216651127Y-118932784D01*
X216651127Y-118696314D01*
X216735068Y-118360546D01*
X216805974Y-118218734D01*
X216940115Y-118084594D01*
X217150250Y-118014550D01*
X217393984Y-118014550D01*
X217393984Y-119614550D01*
G37*
G36*
X224346366Y-119614550D02*
G01*
X223831674Y-119614550D01*
X223712456Y-119554941D01*
X223663118Y-119505601D01*
X223603509Y-119386383D01*
X223603509Y-119195096D01*
X223663118Y-119075877D01*
X223702019Y-119036976D01*
X223912156Y-118966931D01*
X224346366Y-118966931D01*
X224346366Y-119614550D01*
G37*
G36*
X224346366Y-118566931D02*
G01*
X223926912Y-118566931D01*
X223807694Y-118507321D01*
X223758356Y-118457983D01*
X223698747Y-118338764D01*
X223698747Y-118242715D01*
X223758356Y-118123496D01*
X223807694Y-118074159D01*
X223926912Y-118014550D01*
X224346366Y-118014550D01*
X224346366Y-118566931D01*
G37*
G36*
X208346364Y-118662169D02*
G01*
X207831672Y-118662169D01*
X207712454Y-118602560D01*
X207663116Y-118553220D01*
X207603507Y-118434002D01*
X207603507Y-118242715D01*
X207663116Y-118123496D01*
X207712454Y-118074159D01*
X207831672Y-118014550D01*
X208346364Y-118014550D01*
X208346364Y-118662169D01*
G37*
G36*
X228346366Y-118662169D02*
G01*
X227831674Y-118662169D01*
X227712456Y-118602560D01*
X227663118Y-118553220D01*
X227603509Y-118434002D01*
X227603509Y-118242715D01*
X227663118Y-118123496D01*
X227712456Y-118074159D01*
X227831674Y-118014550D01*
X228346366Y-118014550D01*
X228346366Y-118662169D01*
G37*
G36*
X211602212Y-119043121D02*
G01*
X211204803Y-119043121D01*
X211403507Y-118447006D01*
X211602212Y-119043121D01*
G37*
G36*
X230078404Y-119043121D02*
G01*
X229680995Y-119043121D01*
X229879699Y-118447006D01*
X230078404Y-119043121D01*
G37*
G36*
X230967017Y-123456660D02*
G01*
X204028904Y-123456660D01*
X204028904Y-122995420D01*
X221969256Y-122995420D01*
X221969256Y-123073456D01*
X221999119Y-123145552D01*
X222054299Y-123200732D01*
X222126395Y-123230595D01*
X222165413Y-123234438D01*
X223308270Y-123234438D01*
X223347288Y-123230595D01*
X223419384Y-123200732D01*
X223474564Y-123145552D01*
X223504427Y-123073456D01*
X223504427Y-122995420D01*
X223474564Y-122923324D01*
X223419384Y-122868144D01*
X223347288Y-122838281D01*
X223308270Y-122834438D01*
X222936842Y-122834438D01*
X222936842Y-121612518D01*
X222976373Y-121652050D01*
X222991710Y-121664637D01*
X222995171Y-121668627D01*
X223001186Y-121672413D01*
X223006680Y-121676922D01*
X223011559Y-121678943D01*
X223028351Y-121689513D01*
X223218828Y-121784752D01*
X223255445Y-121798764D01*
X223333285Y-121804296D01*
X223407317Y-121779618D01*
X223466269Y-121728489D01*
X223501168Y-121658691D01*
X223506700Y-121580852D01*
X223482023Y-121506820D01*
X223430893Y-121447867D01*
X223397713Y-121426981D01*
X223236266Y-121346257D01*
X223082743Y-121192735D01*
X222993888Y-121059453D01*
X225205080Y-121059453D01*
X225213772Y-121097684D01*
X225880439Y-123097683D01*
X225896424Y-123133484D01*
X225905785Y-123144278D01*
X225912177Y-123157061D01*
X225931122Y-123173491D01*
X225947553Y-123192437D01*
X225960335Y-123198828D01*
X225971130Y-123208190D01*
X225994921Y-123216120D01*
X226017351Y-123227335D01*
X226031603Y-123228347D01*
X226045161Y-123232867D01*
X226070178Y-123231089D01*
X226095191Y-123232867D01*
X226108745Y-123228348D01*
X226123001Y-123227336D01*
X226145435Y-123216119D01*
X226169222Y-123208190D01*
X226180016Y-123198828D01*
X226192799Y-123192437D01*
X226209229Y-123173491D01*
X226228175Y-123157061D01*
X226234566Y-123144278D01*
X226243928Y-123133484D01*
X226259913Y-123097683D01*
X226926579Y-121097683D01*
X226935271Y-121059452D01*
X226930721Y-120995420D01*
X227112114Y-120995420D01*
X227112114Y-121073456D01*
X227141977Y-121145552D01*
X227197157Y-121200732D01*
X227269253Y-121230595D01*
X227308271Y-121234438D01*
X228060652Y-121234438D01*
X228060652Y-121786819D01*
X227593985Y-121786819D01*
X227554967Y-121790662D01*
X227482871Y-121820525D01*
X227427691Y-121875705D01*
X227397828Y-121947801D01*
X227397828Y-122025837D01*
X227427691Y-122097933D01*
X227482871Y-122153113D01*
X227554967Y-122182976D01*
X227593985Y-122186819D01*
X228060652Y-122186819D01*
X228060652Y-122834438D01*
X227308271Y-122834438D01*
X227269253Y-122838281D01*
X227197157Y-122868144D01*
X227141977Y-122923324D01*
X227112114Y-122995420D01*
X227112114Y-123073456D01*
X227141977Y-123145552D01*
X227197157Y-123200732D01*
X227269253Y-123230595D01*
X227308271Y-123234438D01*
X228260652Y-123234438D01*
X228299670Y-123230595D01*
X228371766Y-123200732D01*
X228426946Y-123145552D01*
X228456809Y-123073456D01*
X228460652Y-123034438D01*
X228460652Y-121415390D01*
X228917795Y-121415390D01*
X228917795Y-121701104D01*
X228921638Y-121740122D01*
X228924387Y-121746759D01*
X228924897Y-121753929D01*
X228938910Y-121790547D01*
X229034148Y-121981023D01*
X229044719Y-121997816D01*
X229046739Y-122002693D01*
X229051245Y-122008184D01*
X229055034Y-122014203D01*
X229059025Y-122017664D01*
X229071611Y-122033001D01*
X229166849Y-122128240D01*
X229182188Y-122140829D01*
X229185648Y-122144818D01*
X229191659Y-122148602D01*
X229197156Y-122153113D01*
X229202038Y-122155135D01*
X229218828Y-122165704D01*
X229409305Y-122260943D01*
X229413883Y-122262695D01*
X228953949Y-122919745D01*
X228934722Y-122953914D01*
X228917842Y-123030103D01*
X228931404Y-123106952D01*
X228973342Y-123172761D01*
X229037271Y-123217511D01*
X229113460Y-123234391D01*
X229190309Y-123220829D01*
X229256118Y-123178891D01*
X229281641Y-123149131D01*
X229888593Y-122282057D01*
X230060652Y-122282057D01*
X230060652Y-123034438D01*
X230064495Y-123073456D01*
X230094358Y-123145552D01*
X230149538Y-123200732D01*
X230221634Y-123230595D01*
X230299670Y-123230595D01*
X230371766Y-123200732D01*
X230426946Y-123145552D01*
X230456809Y-123073456D01*
X230460652Y-123034438D01*
X230460652Y-121034438D01*
X230456809Y-120995420D01*
X230426946Y-120923324D01*
X230371766Y-120868144D01*
X230299670Y-120838281D01*
X230260652Y-120834438D01*
X229498747Y-120834438D01*
X229459729Y-120838281D01*
X229453091Y-120841030D01*
X229445922Y-120841540D01*
X229409305Y-120855552D01*
X229218828Y-120950791D01*
X229202036Y-120961360D01*
X229197157Y-120963382D01*
X229191664Y-120967889D01*
X229185648Y-120971677D01*
X229182186Y-120975668D01*
X229166850Y-120988255D01*
X229071612Y-121083493D01*
X229059025Y-121098828D01*
X229055034Y-121102291D01*
X229051246Y-121108307D01*
X229046739Y-121113800D01*
X229044717Y-121118679D01*
X229034148Y-121135471D01*
X228938910Y-121325947D01*
X228924897Y-121362565D01*
X228924387Y-121369734D01*
X228921638Y-121376372D01*
X228917795Y-121415390D01*
X228460652Y-121415390D01*
X228460652Y-121034438D01*
X228456809Y-120995420D01*
X228426946Y-120923324D01*
X228371766Y-120868144D01*
X228299670Y-120838281D01*
X228260652Y-120834438D01*
X227308271Y-120834438D01*
X227269253Y-120838281D01*
X227197157Y-120868144D01*
X227141977Y-120923324D01*
X227112114Y-120995420D01*
X226930721Y-120995420D01*
X226929740Y-120981613D01*
X226894841Y-120911815D01*
X226835888Y-120860686D01*
X226761857Y-120836008D01*
X226684017Y-120841540D01*
X226614219Y-120876439D01*
X226563090Y-120935392D01*
X226547105Y-120971192D01*
X226070175Y-122401981D01*
X225593246Y-120971192D01*
X225577261Y-120935392D01*
X225526132Y-120876439D01*
X225456334Y-120841540D01*
X225378494Y-120836009D01*
X225304463Y-120860686D01*
X225245510Y-120911815D01*
X225210611Y-120981613D01*
X225205080Y-121059453D01*
X222993888Y-121059453D01*
X222903252Y-120923498D01*
X222903163Y-120923389D01*
X222903136Y-120923324D01*
X222902989Y-120923177D01*
X222878411Y-120893165D01*
X222861959Y-120882147D01*
X222847956Y-120868144D01*
X222829853Y-120860645D01*
X222813572Y-120849742D01*
X222794153Y-120845858D01*
X222775860Y-120838281D01*
X222756266Y-120838281D01*
X222737051Y-120834438D01*
X222717625Y-120838281D01*
X222697824Y-120838281D01*
X222679721Y-120845779D01*
X222660499Y-120849582D01*
X222644023Y-120860565D01*
X222625728Y-120868144D01*
X222611871Y-120882000D01*
X222595569Y-120892869D01*
X222584551Y-120909320D01*
X222570548Y-120923324D01*
X222563049Y-120941426D01*
X222552146Y-120957708D01*
X222548262Y-120977126D01*
X222540685Y-120995420D01*
X222536882Y-121034026D01*
X222536842Y-121034229D01*
X222536855Y-121034298D01*
X222536842Y-121034438D01*
X222536842Y-122834438D01*
X222165413Y-122834438D01*
X222126395Y-122838281D01*
X222054299Y-122868144D01*
X221999119Y-122923324D01*
X221969256Y-122995420D01*
X204028904Y-122995420D01*
X204028904Y-117814341D01*
X204251126Y-117814341D01*
X204266270Y-117890893D01*
X204284716Y-117925490D01*
X204877422Y-118814550D01*
X204284716Y-119703610D01*
X204266270Y-119738207D01*
X204251126Y-119814759D01*
X204266430Y-119891280D01*
X204309853Y-119956119D01*
X204374783Y-119999406D01*
X204451335Y-120014550D01*
X204527856Y-119999246D01*
X204592695Y-119955823D01*
X204617536Y-119925490D01*
X205117792Y-119175105D01*
X205618049Y-119925490D01*
X205642890Y-119955824D01*
X205707729Y-119999246D01*
X205784250Y-120014550D01*
X205860803Y-119999406D01*
X205925732Y-119956119D01*
X205969155Y-119891280D01*
X205984459Y-119814759D01*
X205969315Y-119738207D01*
X205950869Y-119703610D01*
X205358162Y-118814550D01*
X205950869Y-117925490D01*
X205969315Y-117890893D01*
X205984418Y-117814550D01*
X206346364Y-117814550D01*
X206346364Y-119814550D01*
X206350207Y-119853568D01*
X206380070Y-119925664D01*
X206435250Y-119980844D01*
X206507346Y-120010707D01*
X206585382Y-120010707D01*
X206657478Y-119980844D01*
X206712658Y-119925664D01*
X206742521Y-119853568D01*
X206746364Y-119814550D01*
X206746364Y-118195502D01*
X207203507Y-118195502D01*
X207203507Y-118481216D01*
X207207350Y-118520234D01*
X207210099Y-118526871D01*
X207210609Y-118534041D01*
X207224622Y-118570659D01*
X207319860Y-118761135D01*
X207330431Y-118777928D01*
X207332451Y-118782805D01*
X207336957Y-118788296D01*
X207340746Y-118794315D01*
X207344737Y-118797776D01*
X207357323Y-118813113D01*
X207452561Y-118908352D01*
X207467900Y-118920941D01*
X207471360Y-118924930D01*
X207477371Y-118928714D01*
X207482868Y-118933225D01*
X207487750Y-118935247D01*
X207504540Y-118945816D01*
X207695017Y-119041055D01*
X207699595Y-119042807D01*
X207239661Y-119699857D01*
X207220434Y-119734026D01*
X207203554Y-119810215D01*
X207217116Y-119887064D01*
X207259054Y-119952873D01*
X207322983Y-119997623D01*
X207399172Y-120014503D01*
X207476021Y-120000941D01*
X207541830Y-119959003D01*
X207567353Y-119929243D01*
X208174305Y-119062169D01*
X208346364Y-119062169D01*
X208346364Y-119814550D01*
X208350207Y-119853568D01*
X208380070Y-119925664D01*
X208435250Y-119980844D01*
X208507346Y-120010707D01*
X208585382Y-120010707D01*
X208657478Y-119980844D01*
X208712658Y-119925664D01*
X208742521Y-119853568D01*
X208746364Y-119814550D01*
X208746364Y-117814550D01*
X208742521Y-117775532D01*
X209016874Y-117775532D01*
X209016874Y-117853568D01*
X209046737Y-117925664D01*
X209101917Y-117980844D01*
X209174013Y-118010707D01*
X209213031Y-118014550D01*
X209584460Y-118014550D01*
X209584460Y-119814550D01*
X209588303Y-119853568D01*
X209618166Y-119925664D01*
X209673346Y-119980844D01*
X209745442Y-120010707D01*
X209823478Y-120010707D01*
X209895574Y-119980844D01*
X209950754Y-119925664D01*
X209980617Y-119853568D01*
X209984460Y-119814550D01*
X209984460Y-119789535D01*
X210538412Y-119789535D01*
X210543943Y-119867375D01*
X210578842Y-119937173D01*
X210637795Y-119988302D01*
X210711826Y-120012979D01*
X210789666Y-120007448D01*
X210859464Y-119972549D01*
X210910593Y-119913596D01*
X210926578Y-119877796D01*
X211071470Y-119443121D01*
X211735546Y-119443121D01*
X211880437Y-119877796D01*
X211896422Y-119913596D01*
X211947551Y-119972549D01*
X212017349Y-120007448D01*
X212095189Y-120012980D01*
X212169220Y-119988302D01*
X212228173Y-119937173D01*
X212263072Y-119867375D01*
X212268603Y-119789536D01*
X212259911Y-119751305D01*
X211614327Y-117814550D01*
X212536841Y-117814550D01*
X212536841Y-119814550D01*
X212540684Y-119853568D01*
X212570547Y-119925664D01*
X212625727Y-119980844D01*
X212697823Y-120010707D01*
X212775859Y-120010707D01*
X212847955Y-119980844D01*
X212903135Y-119925664D01*
X212932998Y-119853568D01*
X212936841Y-119814550D01*
X212936841Y-118716064D01*
X213222270Y-119327698D01*
X213230734Y-119341986D01*
X213232494Y-119346825D01*
X213235628Y-119350247D01*
X213242253Y-119361430D01*
X213264671Y-119381960D01*
X213285198Y-119404375D01*
X213293247Y-119408131D01*
X213299802Y-119414134D01*
X213328372Y-119424522D01*
X213355912Y-119437375D01*
X213364788Y-119437765D01*
X213373140Y-119440802D01*
X213403506Y-119439467D01*
X213433873Y-119440802D01*
X213442224Y-119437765D01*
X213451101Y-119437375D01*
X213478642Y-119424522D01*
X213507211Y-119414134D01*
X213513764Y-119408132D01*
X213521816Y-119404375D01*
X213542344Y-119381958D01*
X213564761Y-119361430D01*
X213571385Y-119350247D01*
X213574520Y-119346825D01*
X213576279Y-119341986D01*
X213584744Y-119327698D01*
X213870174Y-118716062D01*
X213870174Y-119814550D01*
X213874017Y-119853568D01*
X213903880Y-119925664D01*
X213959060Y-119980844D01*
X214031156Y-120010707D01*
X214109192Y-120010707D01*
X214181288Y-119980844D01*
X214236468Y-119925664D01*
X214266331Y-119853568D01*
X214270174Y-119814550D01*
X214270174Y-118671692D01*
X216251127Y-118671692D01*
X216251127Y-118957407D01*
X216251797Y-118964215D01*
X216251364Y-118967129D01*
X216253522Y-118981730D01*
X216254970Y-118996425D01*
X216256097Y-118999147D01*
X216257098Y-119005914D01*
X216352336Y-119386866D01*
X216353364Y-119389745D01*
X216353467Y-119391184D01*
X216359677Y-119407412D01*
X216365528Y-119423787D01*
X216366387Y-119424946D01*
X216367480Y-119427802D01*
X216462718Y-119618278D01*
X216473287Y-119635069D01*
X216475309Y-119639949D01*
X216479817Y-119645442D01*
X216483604Y-119651458D01*
X216487594Y-119654918D01*
X216500181Y-119670256D01*
X216690657Y-119860733D01*
X216720964Y-119885605D01*
X216727603Y-119888355D01*
X216733033Y-119893064D01*
X216768834Y-119909049D01*
X217054549Y-120004287D01*
X217073895Y-120008685D01*
X217078776Y-120010707D01*
X217085852Y-120011403D01*
X217092780Y-120012979D01*
X217098045Y-120012604D01*
X217117794Y-120014550D01*
X217593984Y-120014550D01*
X217633002Y-120010707D01*
X217705098Y-119980844D01*
X217760278Y-119925664D01*
X217790141Y-119853568D01*
X217793984Y-119814550D01*
X217793984Y-117814550D01*
X217790141Y-117775532D01*
X218254970Y-117775532D01*
X218254970Y-117853568D01*
X218284833Y-117925664D01*
X218340013Y-117980844D01*
X218412109Y-118010707D01*
X218451127Y-118014550D01*
X219203508Y-118014550D01*
X219203508Y-118566931D01*
X218736841Y-118566931D01*
X218697823Y-118570774D01*
X218625727Y-118600637D01*
X218570547Y-118655817D01*
X218540684Y-118727913D01*
X218540684Y-118805949D01*
X218570547Y-118878045D01*
X218625727Y-118933225D01*
X218697823Y-118963088D01*
X218736841Y-118966931D01*
X219203508Y-118966931D01*
X219203508Y-119614550D01*
X218451127Y-119614550D01*
X218412109Y-119618393D01*
X218340013Y-119648256D01*
X218284833Y-119703436D01*
X218254970Y-119775532D01*
X218254970Y-119853568D01*
X218284833Y-119925664D01*
X218340013Y-119980844D01*
X218412109Y-120010707D01*
X218451127Y-120014550D01*
X219403508Y-120014550D01*
X219442526Y-120010707D01*
X219514622Y-119980844D01*
X219569802Y-119925664D01*
X219599665Y-119853568D01*
X219603508Y-119814550D01*
X219603508Y-119775532D01*
X219874018Y-119775532D01*
X219874018Y-119853568D01*
X219903881Y-119925664D01*
X219959061Y-119980844D01*
X220031157Y-120010707D01*
X220070175Y-120014550D01*
X221022556Y-120014550D01*
X221061574Y-120010707D01*
X221133670Y-119980844D01*
X221188850Y-119925664D01*
X221218713Y-119853568D01*
X221222556Y-119814550D01*
X221222556Y-119147883D01*
X223203509Y-119147883D01*
X223203509Y-119433597D01*
X223207352Y-119472615D01*
X223210101Y-119479252D01*
X223210611Y-119486422D01*
X223224624Y-119523040D01*
X223319862Y-119713516D01*
X223330433Y-119730309D01*
X223332453Y-119735186D01*
X223336959Y-119740677D01*
X223340748Y-119746696D01*
X223344739Y-119750157D01*
X223357325Y-119765494D01*
X223452563Y-119860733D01*
X223467902Y-119873322D01*
X223471362Y-119877311D01*
X223477373Y-119881095D01*
X223482870Y-119885606D01*
X223487752Y-119887628D01*
X223504542Y-119898197D01*
X223695019Y-119993436D01*
X223731636Y-120007448D01*
X223738805Y-120007957D01*
X223745443Y-120010707D01*
X223784461Y-120014550D01*
X224546366Y-120014550D01*
X224585384Y-120010707D01*
X224657480Y-119980844D01*
X224712660Y-119925664D01*
X224742523Y-119853568D01*
X224746366Y-119814550D01*
X224746366Y-118957407D01*
X225203509Y-118957407D01*
X225203509Y-119624073D01*
X225207352Y-119663091D01*
X225237215Y-119735187D01*
X225237219Y-119735191D01*
X225262087Y-119765494D01*
X225357325Y-119860733D01*
X225387632Y-119885606D01*
X225394273Y-119888357D01*
X225399701Y-119893064D01*
X225435501Y-119909049D01*
X225721215Y-120004287D01*
X225740564Y-120008686D01*
X225745443Y-120010707D01*
X225752517Y-120011403D01*
X225759446Y-120012979D01*
X225764711Y-120012604D01*
X225784461Y-120014550D01*
X225974937Y-120014550D01*
X225994685Y-120012604D01*
X225999951Y-120012979D01*
X226006878Y-120011403D01*
X226013955Y-120010707D01*
X226018835Y-120008685D01*
X226038182Y-120004287D01*
X226323897Y-119909049D01*
X226359698Y-119893064D01*
X226365125Y-119888356D01*
X226371766Y-119885606D01*
X226402074Y-119860733D01*
X226592549Y-119670256D01*
X226605135Y-119654919D01*
X226609127Y-119651458D01*
X226612914Y-119645441D01*
X226617422Y-119639949D01*
X226619443Y-119635069D01*
X226630013Y-119618278D01*
X226725252Y-119427801D01*
X226726344Y-119424945D01*
X226727203Y-119423787D01*
X226733049Y-119407423D01*
X226739264Y-119391184D01*
X226739366Y-119389745D01*
X226740395Y-119386866D01*
X226835632Y-119005914D01*
X226836632Y-118999150D01*
X226837761Y-118996425D01*
X226839209Y-118981722D01*
X226841367Y-118967129D01*
X226840933Y-118964215D01*
X226841604Y-118957407D01*
X226841604Y-118671692D01*
X226840933Y-118664883D01*
X226841367Y-118661970D01*
X226839209Y-118647376D01*
X226837761Y-118632674D01*
X226836632Y-118629948D01*
X226835632Y-118623185D01*
X226740395Y-118242233D01*
X226739366Y-118239353D01*
X226739264Y-118237915D01*
X226733049Y-118221675D01*
X226727203Y-118205312D01*
X226726344Y-118204153D01*
X226725252Y-118201298D01*
X226722354Y-118195502D01*
X227203509Y-118195502D01*
X227203509Y-118481216D01*
X227207352Y-118520234D01*
X227210101Y-118526871D01*
X227210611Y-118534041D01*
X227224624Y-118570659D01*
X227319862Y-118761135D01*
X227330433Y-118777928D01*
X227332453Y-118782805D01*
X227336959Y-118788296D01*
X227340748Y-118794315D01*
X227344739Y-118797776D01*
X227357325Y-118813113D01*
X227452563Y-118908352D01*
X227467902Y-118920941D01*
X227471362Y-118924930D01*
X227477373Y-118928714D01*
X227482870Y-118933225D01*
X227487752Y-118935247D01*
X227504542Y-118945816D01*
X227695019Y-119041055D01*
X227699597Y-119042807D01*
X227239663Y-119699857D01*
X227220436Y-119734026D01*
X227203556Y-119810215D01*
X227217118Y-119887064D01*
X227259056Y-119952873D01*
X227322985Y-119997623D01*
X227399174Y-120014503D01*
X227476023Y-120000941D01*
X227541832Y-119959003D01*
X227567355Y-119929243D01*
X228174307Y-119062169D01*
X228346366Y-119062169D01*
X228346366Y-119814550D01*
X228350209Y-119853568D01*
X228380072Y-119925664D01*
X228435252Y-119980844D01*
X228507348Y-120010707D01*
X228585384Y-120010707D01*
X228657480Y-119980844D01*
X228712660Y-119925664D01*
X228742523Y-119853568D01*
X228746366Y-119814550D01*
X228746366Y-119789535D01*
X229014604Y-119789535D01*
X229020135Y-119867375D01*
X229055034Y-119937173D01*
X229113987Y-119988302D01*
X229188018Y-120012979D01*
X229265858Y-120007448D01*
X229335656Y-119972549D01*
X229386785Y-119913596D01*
X229402770Y-119877796D01*
X229547662Y-119443121D01*
X230211738Y-119443121D01*
X230356629Y-119877796D01*
X230372614Y-119913596D01*
X230423743Y-119972549D01*
X230493541Y-120007448D01*
X230571381Y-120012980D01*
X230645412Y-119988302D01*
X230704365Y-119937173D01*
X230739264Y-119867375D01*
X230744795Y-119789536D01*
X230736103Y-119751305D01*
X230069437Y-117751305D01*
X230053452Y-117715504D01*
X230044090Y-117704709D01*
X230037699Y-117691927D01*
X230018753Y-117675496D01*
X230002323Y-117656551D01*
X229989540Y-117650159D01*
X229978746Y-117640798D01*
X229954959Y-117632869D01*
X229932525Y-117621652D01*
X229918269Y-117620639D01*
X229904715Y-117616121D01*
X229879702Y-117617898D01*
X229854685Y-117616121D01*
X229841127Y-117620640D01*
X229826875Y-117621653D01*
X229804445Y-117632867D01*
X229780654Y-117640798D01*
X229769859Y-117650159D01*
X229757077Y-117656551D01*
X229740646Y-117675496D01*
X229721701Y-117691927D01*
X229715309Y-117704709D01*
X229705948Y-117715504D01*
X229689963Y-117751305D01*
X229023296Y-119751304D01*
X229014604Y-119789535D01*
X228746366Y-119789535D01*
X228746366Y-117814550D01*
X228742523Y-117775532D01*
X228712660Y-117703436D01*
X228657480Y-117648256D01*
X228585384Y-117618393D01*
X228546366Y-117614550D01*
X227784461Y-117614550D01*
X227745443Y-117618393D01*
X227738805Y-117621142D01*
X227731636Y-117621652D01*
X227695019Y-117635664D01*
X227504542Y-117730903D01*
X227487750Y-117741472D01*
X227482871Y-117743494D01*
X227477378Y-117748001D01*
X227471362Y-117751789D01*
X227467900Y-117755780D01*
X227452564Y-117768367D01*
X227357326Y-117863605D01*
X227344739Y-117878940D01*
X227340748Y-117882403D01*
X227336960Y-117888419D01*
X227332453Y-117893912D01*
X227330431Y-117898791D01*
X227319862Y-117915583D01*
X227224624Y-118106059D01*
X227210611Y-118142677D01*
X227210101Y-118149846D01*
X227207352Y-118156484D01*
X227203509Y-118195502D01*
X226722354Y-118195502D01*
X226630013Y-118010821D01*
X226619443Y-117994029D01*
X226617422Y-117989150D01*
X226612913Y-117983656D01*
X226609127Y-117977641D01*
X226605137Y-117974180D01*
X226592550Y-117958843D01*
X226402073Y-117768367D01*
X226371766Y-117743494D01*
X226365126Y-117740743D01*
X226359698Y-117736036D01*
X226323897Y-117720051D01*
X226038182Y-117624813D01*
X226018835Y-117620414D01*
X226013955Y-117618393D01*
X226006878Y-117617696D01*
X225999951Y-117616121D01*
X225994685Y-117616495D01*
X225974937Y-117614550D01*
X225689223Y-117614550D01*
X225650205Y-117618393D01*
X225643567Y-117621142D01*
X225636398Y-117621652D01*
X225599781Y-117635664D01*
X225409304Y-117730903D01*
X225376124Y-117751789D01*
X225324995Y-117810742D01*
X225300317Y-117884774D01*
X225305849Y-117962613D01*
X225340748Y-118032411D01*
X225399701Y-118083540D01*
X225473733Y-118108218D01*
X225551572Y-118102686D01*
X225588190Y-118088673D01*
X225736436Y-118014550D01*
X225942481Y-118014550D01*
X226152616Y-118084594D01*
X226286757Y-118218736D01*
X226357661Y-118360543D01*
X226441604Y-118696315D01*
X226441604Y-118932784D01*
X226357661Y-119268556D01*
X226286757Y-119410362D01*
X226152615Y-119544505D01*
X225942481Y-119614550D01*
X225816918Y-119614550D01*
X225606782Y-119544504D01*
X225603509Y-119541231D01*
X225603509Y-119157407D01*
X225784461Y-119157407D01*
X225823479Y-119153564D01*
X225895575Y-119123701D01*
X225950755Y-119068521D01*
X225980618Y-118996425D01*
X225980618Y-118918389D01*
X225950755Y-118846293D01*
X225895575Y-118791113D01*
X225823479Y-118761250D01*
X225784461Y-118757407D01*
X225403509Y-118757407D01*
X225364491Y-118761250D01*
X225292395Y-118791113D01*
X225237215Y-118846293D01*
X225207352Y-118918389D01*
X225203509Y-118957407D01*
X224746366Y-118957407D01*
X224746366Y-117814550D01*
X224742523Y-117775532D01*
X224712660Y-117703436D01*
X224657480Y-117648256D01*
X224585384Y-117618393D01*
X224546366Y-117614550D01*
X223879699Y-117614550D01*
X223840681Y-117618393D01*
X223834043Y-117621142D01*
X223826874Y-117621652D01*
X223790257Y-117635664D01*
X223599780Y-117730903D01*
X223582988Y-117741472D01*
X223578109Y-117743494D01*
X223572616Y-117748001D01*
X223566600Y-117751789D01*
X223563138Y-117755780D01*
X223547802Y-117768367D01*
X223452564Y-117863605D01*
X223439977Y-117878940D01*
X223435986Y-117882403D01*
X223432198Y-117888419D01*
X223427691Y-117893912D01*
X223425669Y-117898791D01*
X223415100Y-117915583D01*
X223319862Y-118106059D01*
X223305849Y-118142677D01*
X223305339Y-118149846D01*
X223302590Y-118156484D01*
X223298747Y-118195502D01*
X223298747Y-118385978D01*
X223302590Y-118424996D01*
X223305339Y-118431633D01*
X223305849Y-118438803D01*
X223319862Y-118475421D01*
X223415100Y-118665897D01*
X223425669Y-118682688D01*
X223427691Y-118687568D01*
X223432198Y-118693060D01*
X223435986Y-118699077D01*
X223439977Y-118702539D01*
X223452564Y-118717875D01*
X223454141Y-118719452D01*
X223452564Y-118720748D01*
X223357326Y-118815986D01*
X223344739Y-118831321D01*
X223340748Y-118834784D01*
X223336960Y-118840800D01*
X223332453Y-118846293D01*
X223330431Y-118851172D01*
X223319862Y-118867964D01*
X223224624Y-119058440D01*
X223210611Y-119095058D01*
X223210101Y-119102227D01*
X223207352Y-119108865D01*
X223203509Y-119147883D01*
X221222556Y-119147883D01*
X221222556Y-117814550D01*
X221218713Y-117775532D01*
X221188850Y-117703436D01*
X221133670Y-117648256D01*
X221061574Y-117618393D01*
X220983538Y-117618393D01*
X220911442Y-117648256D01*
X220856262Y-117703436D01*
X220826399Y-117775532D01*
X220822556Y-117814550D01*
X220822556Y-119614550D01*
X220070175Y-119614550D01*
X220031157Y-119618393D01*
X219959061Y-119648256D01*
X219903881Y-119703436D01*
X219874018Y-119775532D01*
X219603508Y-119775532D01*
X219603508Y-117814550D01*
X219599665Y-117775532D01*
X219569802Y-117703436D01*
X219514622Y-117648256D01*
X219442526Y-117618393D01*
X219403508Y-117614550D01*
X218451127Y-117614550D01*
X218412109Y-117618393D01*
X218340013Y-117648256D01*
X218284833Y-117703436D01*
X218254970Y-117775532D01*
X217790141Y-117775532D01*
X217760278Y-117703436D01*
X217705098Y-117648256D01*
X217633002Y-117618393D01*
X217593984Y-117614550D01*
X217117794Y-117614550D01*
X217098045Y-117616495D01*
X217092780Y-117616121D01*
X217085852Y-117617696D01*
X217078776Y-117618393D01*
X217073895Y-117620414D01*
X217054549Y-117624813D01*
X216768834Y-117720051D01*
X216733033Y-117736036D01*
X216727604Y-117740743D01*
X216720965Y-117743494D01*
X216690658Y-117768366D01*
X216500182Y-117958843D01*
X216487595Y-117974178D01*
X216483604Y-117977641D01*
X216479816Y-117983657D01*
X216475309Y-117989150D01*
X216473287Y-117994029D01*
X216462718Y-118010821D01*
X216367480Y-118201297D01*
X216366387Y-118204152D01*
X216365528Y-118205312D01*
X216359677Y-118221686D01*
X216353467Y-118237915D01*
X216353364Y-118239353D01*
X216352336Y-118242233D01*
X216257098Y-118623185D01*
X216256097Y-118629951D01*
X216254970Y-118632674D01*
X216253522Y-118647368D01*
X216251364Y-118661970D01*
X216251797Y-118664883D01*
X216251127Y-118671692D01*
X214270174Y-118671692D01*
X214270174Y-117814550D01*
X214267647Y-117788900D01*
X214267855Y-117784184D01*
X214266933Y-117781650D01*
X214266331Y-117775532D01*
X214253048Y-117743465D01*
X214241187Y-117710845D01*
X214238174Y-117707555D01*
X214236468Y-117703436D01*
X214211931Y-117678899D01*
X214188484Y-117653296D01*
X214184441Y-117651409D01*
X214181288Y-117648256D01*
X214149232Y-117634978D01*
X214117769Y-117620295D01*
X214113310Y-117620099D01*
X214109192Y-117618393D01*
X214074500Y-117618393D01*
X214039808Y-117616868D01*
X214035614Y-117618393D01*
X214031156Y-117618393D01*
X213999094Y-117631673D01*
X213966470Y-117643537D01*
X213963180Y-117646549D01*
X213959060Y-117648256D01*
X213934518Y-117672797D01*
X213908920Y-117696240D01*
X213905787Y-117701528D01*
X213903880Y-117703436D01*
X213902072Y-117707799D01*
X213888938Y-117729973D01*
X213403507Y-118770179D01*
X212918078Y-117729973D01*
X212904942Y-117707800D01*
X212903135Y-117703436D01*
X212901227Y-117701528D01*
X212898095Y-117696241D01*
X212872502Y-117672803D01*
X212847955Y-117648256D01*
X212843833Y-117646549D01*
X212840545Y-117643537D01*
X212807929Y-117631677D01*
X212775859Y-117618393D01*
X212771398Y-117618393D01*
X212767207Y-117616869D01*
X212732538Y-117618393D01*
X212697823Y-117618393D01*
X212693701Y-117620100D01*
X212689247Y-117620296D01*
X212657802Y-117634969D01*
X212625727Y-117648256D01*
X212622572Y-117651410D01*
X212618532Y-117653296D01*
X212595094Y-117678888D01*
X212570547Y-117703436D01*
X212568840Y-117707557D01*
X212565828Y-117710846D01*
X212553968Y-117743461D01*
X212540684Y-117775532D01*
X212540081Y-117781650D01*
X212539160Y-117784184D01*
X212539367Y-117788900D01*
X212536841Y-117814550D01*
X211614327Y-117814550D01*
X211593245Y-117751305D01*
X211577260Y-117715504D01*
X211567898Y-117704709D01*
X211561507Y-117691927D01*
X211542561Y-117675496D01*
X211526131Y-117656551D01*
X211513348Y-117650159D01*
X211502554Y-117640798D01*
X211478767Y-117632869D01*
X211456333Y-117621652D01*
X211442077Y-117620639D01*
X211428523Y-117616121D01*
X211403510Y-117617898D01*
X211378493Y-117616121D01*
X211364935Y-117620640D01*
X211350683Y-117621653D01*
X211328253Y-117632867D01*
X211304462Y-117640798D01*
X211293667Y-117650159D01*
X211280885Y-117656551D01*
X211264454Y-117675496D01*
X211245509Y-117691927D01*
X211239117Y-117704709D01*
X211229756Y-117715504D01*
X211213771Y-117751305D01*
X210547104Y-119751304D01*
X210538412Y-119789535D01*
X209984460Y-119789535D01*
X209984460Y-118014550D01*
X210355888Y-118014550D01*
X210394906Y-118010707D01*
X210467002Y-117980844D01*
X210522182Y-117925664D01*
X210552045Y-117853568D01*
X210552045Y-117775532D01*
X210522182Y-117703436D01*
X210467002Y-117648256D01*
X210394906Y-117618393D01*
X210355888Y-117614550D01*
X209213031Y-117614550D01*
X209174013Y-117618393D01*
X209101917Y-117648256D01*
X209046737Y-117703436D01*
X209016874Y-117775532D01*
X208742521Y-117775532D01*
X208712658Y-117703436D01*
X208657478Y-117648256D01*
X208585382Y-117618393D01*
X208546364Y-117614550D01*
X207784459Y-117614550D01*
X207745441Y-117618393D01*
X207738803Y-117621142D01*
X207731634Y-117621652D01*
X207695017Y-117635664D01*
X207504540Y-117730903D01*
X207487748Y-117741472D01*
X207482869Y-117743494D01*
X207477376Y-117748001D01*
X207471360Y-117751789D01*
X207467898Y-117755780D01*
X207452562Y-117768367D01*
X207357324Y-117863605D01*
X207344737Y-117878940D01*
X207340746Y-117882403D01*
X207336958Y-117888419D01*
X207332451Y-117893912D01*
X207330429Y-117898791D01*
X207319860Y-117915583D01*
X207224622Y-118106059D01*
X207210609Y-118142677D01*
X207210099Y-118149846D01*
X207207350Y-118156484D01*
X207203507Y-118195502D01*
X206746364Y-118195502D01*
X206746364Y-117814550D01*
X206742521Y-117775532D01*
X206712658Y-117703436D01*
X206657478Y-117648256D01*
X206585382Y-117618393D01*
X206507346Y-117618393D01*
X206435250Y-117648256D01*
X206380070Y-117703436D01*
X206350207Y-117775532D01*
X206346364Y-117814550D01*
X205984418Y-117814550D01*
X205984459Y-117814341D01*
X205969155Y-117737820D01*
X205925732Y-117672981D01*
X205860803Y-117629694D01*
X205784250Y-117614550D01*
X205707729Y-117629854D01*
X205642890Y-117673276D01*
X205618049Y-117703610D01*
X205117792Y-118453994D01*
X204617536Y-117703610D01*
X204592695Y-117673277D01*
X204527856Y-117629854D01*
X204451335Y-117614550D01*
X204374783Y-117629694D01*
X204309853Y-117672981D01*
X204266430Y-117737820D01*
X204251126Y-117814341D01*
X204028904Y-117814341D01*
X204028904Y-117392328D01*
X230967017Y-117392328D01*
X230967017Y-123456660D01*
G37*
D12*
G36*
X106074060Y-109050828D02*
G01*
X105891260Y-109050828D01*
X105733657Y-108998294D01*
X105633052Y-108897688D01*
X105579871Y-108791328D01*
X105516917Y-108539507D01*
X105516917Y-108362148D01*
X105579871Y-108110327D01*
X105633052Y-108003967D01*
X105733658Y-107903361D01*
X105891260Y-107850828D01*
X106074060Y-107850828D01*
X106074060Y-109050828D01*
G37*
G36*
X109683584Y-109517495D02*
G01*
X105050250Y-109517495D01*
X105050250Y-108343685D01*
X105216917Y-108343685D01*
X105216917Y-108557971D01*
X105217419Y-108563074D01*
X105217094Y-108565262D01*
X105218713Y-108576212D01*
X105219799Y-108587235D01*
X105220646Y-108589279D01*
X105221396Y-108594351D01*
X105292824Y-108880065D01*
X105293595Y-108882223D01*
X105293672Y-108883304D01*
X105298330Y-108895478D01*
X105302717Y-108907756D01*
X105303361Y-108908626D01*
X105304181Y-108910767D01*
X105375610Y-109053624D01*
X105383537Y-109066217D01*
X105385053Y-109069877D01*
X105388434Y-109073996D01*
X105391275Y-109078510D01*
X105394268Y-109081106D01*
X105403708Y-109092608D01*
X105546565Y-109235466D01*
X105569295Y-109254121D01*
X105574274Y-109256183D01*
X105578346Y-109259715D01*
X105605197Y-109271703D01*
X105819483Y-109343131D01*
X105833995Y-109346430D01*
X105837653Y-109347946D01*
X105842955Y-109348468D01*
X105848157Y-109349651D01*
X105852111Y-109349369D01*
X105866917Y-109350828D01*
X106224060Y-109350828D01*
X106253324Y-109347946D01*
X106307396Y-109325548D01*
X106348780Y-109284164D01*
X106371178Y-109230092D01*
X106374060Y-109200828D01*
X106374060Y-107700828D01*
X106788346Y-107700828D01*
X106788346Y-109200828D01*
X106789087Y-109208353D01*
X106788712Y-109211305D01*
X106789754Y-109215125D01*
X106791228Y-109230092D01*
X106798863Y-109248524D01*
X106804112Y-109267769D01*
X106809966Y-109275328D01*
X106813626Y-109284164D01*
X106827733Y-109298271D01*
X106839947Y-109314043D01*
X106848249Y-109318787D01*
X106855010Y-109325548D01*
X106873440Y-109333182D01*
X106890763Y-109343081D01*
X106900248Y-109344286D01*
X106909082Y-109347946D01*
X106929032Y-109347946D01*
X106948823Y-109350462D01*
X106958048Y-109347946D01*
X106967610Y-109347946D01*
X106986042Y-109340310D01*
X107005287Y-109335062D01*
X107012846Y-109329207D01*
X107021682Y-109325548D01*
X107035789Y-109311440D01*
X107051561Y-109299227D01*
X107060266Y-109286963D01*
X107063066Y-109284164D01*
X107064204Y-109281416D01*
X107068582Y-109275249D01*
X107645489Y-108265663D01*
X107645489Y-109200828D01*
X107648371Y-109230092D01*
X107670769Y-109284164D01*
X107712153Y-109325548D01*
X107766225Y-109347946D01*
X107824753Y-109347946D01*
X107878825Y-109325548D01*
X107920209Y-109284164D01*
X107942607Y-109230092D01*
X107945489Y-109200828D01*
X107945489Y-108557971D01*
X108288346Y-108557971D01*
X108288346Y-109057971D01*
X108291228Y-109087235D01*
X108313626Y-109141307D01*
X108313629Y-109141310D01*
X108332279Y-109164036D01*
X108403707Y-109235465D01*
X108426438Y-109254120D01*
X108431414Y-109256181D01*
X108435489Y-109259715D01*
X108462340Y-109271703D01*
X108676626Y-109343131D01*
X108691138Y-109346430D01*
X108694796Y-109347946D01*
X108700098Y-109348468D01*
X108705300Y-109349651D01*
X108709254Y-109349369D01*
X108724060Y-109350828D01*
X108866917Y-109350828D01*
X108881722Y-109349369D01*
X108885677Y-109349651D01*
X108890878Y-109348468D01*
X108896181Y-109347946D01*
X108899838Y-109346430D01*
X108914351Y-109343131D01*
X109128637Y-109271703D01*
X109155488Y-109259715D01*
X109159559Y-109256183D01*
X109164539Y-109254121D01*
X109187269Y-109235466D01*
X109330126Y-109092608D01*
X109339564Y-109081106D01*
X109342559Y-109078510D01*
X109345399Y-109073996D01*
X109348781Y-109069877D01*
X109350296Y-109066217D01*
X109358224Y-109053624D01*
X109429653Y-108910768D01*
X109430472Y-108908625D01*
X109431117Y-108907756D01*
X109435501Y-108895484D01*
X109440162Y-108883304D01*
X109440238Y-108882223D01*
X109441010Y-108880065D01*
X109512438Y-108594351D01*
X109513187Y-108589279D01*
X109514035Y-108587235D01*
X109515120Y-108576212D01*
X109516740Y-108565262D01*
X109516414Y-108563074D01*
X109516917Y-108557971D01*
X109516917Y-108343685D01*
X109516414Y-108338581D01*
X109516740Y-108336394D01*
X109515120Y-108325443D01*
X109514035Y-108314421D01*
X109513187Y-108312376D01*
X109512438Y-108307305D01*
X109441010Y-108021591D01*
X109440238Y-108019432D01*
X109440162Y-108018352D01*
X109435501Y-108006171D01*
X109431117Y-107993900D01*
X109430472Y-107993030D01*
X109429653Y-107990888D01*
X109358224Y-107848032D01*
X109350297Y-107835440D01*
X109348781Y-107831778D01*
X109345397Y-107827655D01*
X109342559Y-107823146D01*
X109339566Y-107820550D01*
X109330126Y-107809048D01*
X109187269Y-107666191D01*
X109164538Y-107647536D01*
X109159558Y-107645473D01*
X109155488Y-107641943D01*
X109128637Y-107629954D01*
X108914351Y-107558526D01*
X108899843Y-107555227D01*
X108896181Y-107553710D01*
X108890872Y-107553187D01*
X108885678Y-107552006D01*
X108881728Y-107552286D01*
X108866917Y-107550828D01*
X108652632Y-107550828D01*
X108623368Y-107553710D01*
X108618390Y-107555771D01*
X108613013Y-107556154D01*
X108585550Y-107566664D01*
X108442692Y-107638093D01*
X108417806Y-107653758D01*
X108379460Y-107697973D01*
X108360952Y-107753495D01*
X108365100Y-107811876D01*
X108391275Y-107864225D01*
X108435490Y-107902571D01*
X108491012Y-107921079D01*
X108549393Y-107916931D01*
X108576856Y-107906421D01*
X108688042Y-107850828D01*
X108842577Y-107850828D01*
X109000175Y-107903361D01*
X109100782Y-108003968D01*
X109153961Y-108110327D01*
X109216917Y-108362148D01*
X109216917Y-108539507D01*
X109153961Y-108791328D01*
X109100782Y-108897688D01*
X109000176Y-108998294D01*
X108842574Y-109050828D01*
X108748403Y-109050828D01*
X108590800Y-108998294D01*
X108588346Y-108995839D01*
X108588346Y-108707971D01*
X108724060Y-108707971D01*
X108753324Y-108705089D01*
X108807396Y-108682691D01*
X108848780Y-108641307D01*
X108871178Y-108587235D01*
X108871178Y-108528707D01*
X108848780Y-108474635D01*
X108807396Y-108433251D01*
X108753324Y-108410853D01*
X108724060Y-108407971D01*
X108438346Y-108407971D01*
X108409082Y-108410853D01*
X108355010Y-108433251D01*
X108313626Y-108474635D01*
X108291228Y-108528707D01*
X108288346Y-108557971D01*
X107945489Y-108557971D01*
X107945489Y-107700828D01*
X107944747Y-107693301D01*
X107945123Y-107690350D01*
X107944080Y-107686528D01*
X107942607Y-107671564D01*
X107934971Y-107653131D01*
X107929723Y-107633887D01*
X107923868Y-107626327D01*
X107920209Y-107617492D01*
X107906101Y-107603384D01*
X107893888Y-107587613D01*
X107885585Y-107582868D01*
X107878825Y-107576108D01*
X107860394Y-107568473D01*
X107843072Y-107558575D01*
X107833586Y-107557369D01*
X107824753Y-107553710D01*
X107804803Y-107553710D01*
X107785012Y-107551194D01*
X107775787Y-107553710D01*
X107766225Y-107553710D01*
X107747796Y-107561343D01*
X107728548Y-107566593D01*
X107720986Y-107572449D01*
X107712153Y-107576108D01*
X107698047Y-107590213D01*
X107682274Y-107602429D01*
X107673568Y-107614692D01*
X107670769Y-107617492D01*
X107669630Y-107620239D01*
X107665253Y-107626407D01*
X107088346Y-108635994D01*
X107088346Y-107700828D01*
X107085464Y-107671564D01*
X107063066Y-107617492D01*
X107021682Y-107576108D01*
X106967610Y-107553710D01*
X106909082Y-107553710D01*
X106855010Y-107576108D01*
X106813626Y-107617492D01*
X106791228Y-107671564D01*
X106788346Y-107700828D01*
X106374060Y-107700828D01*
X106371178Y-107671564D01*
X106348780Y-107617492D01*
X106307396Y-107576108D01*
X106253324Y-107553710D01*
X106224060Y-107550828D01*
X105866917Y-107550828D01*
X105852105Y-107552286D01*
X105848156Y-107552006D01*
X105842961Y-107553187D01*
X105837653Y-107553710D01*
X105833991Y-107555226D01*
X105819482Y-107558526D01*
X105605197Y-107629955D01*
X105578346Y-107641943D01*
X105574276Y-107645472D01*
X105569295Y-107647536D01*
X105546565Y-107666191D01*
X105403708Y-107809048D01*
X105394268Y-107820549D01*
X105391275Y-107823146D01*
X105388434Y-107827659D01*
X105385053Y-107831779D01*
X105383537Y-107835438D01*
X105375610Y-107848032D01*
X105304181Y-107990889D01*
X105303361Y-107993029D01*
X105302717Y-107993900D01*
X105298330Y-108006177D01*
X105293672Y-108018352D01*
X105293595Y-108019432D01*
X105292824Y-108021591D01*
X105221396Y-108307305D01*
X105220646Y-108312376D01*
X105219799Y-108314421D01*
X105218713Y-108325443D01*
X105217094Y-108336394D01*
X105217419Y-108338581D01*
X105216917Y-108343685D01*
X105050250Y-108343685D01*
X105050250Y-107384161D01*
X109683584Y-107384161D01*
X109683584Y-109517495D01*
G37*
G36*
X109609274Y-114867495D02*
G01*
X104908571Y-114867495D01*
X104908571Y-113069589D01*
X105075238Y-113069589D01*
X105081758Y-113098262D01*
X105581758Y-114598262D01*
X105593746Y-114625113D01*
X105600768Y-114633210D01*
X105605561Y-114642795D01*
X105619767Y-114655116D01*
X105632093Y-114669328D01*
X105641680Y-114674121D01*
X105649775Y-114681142D01*
X105667617Y-114687089D01*
X105684441Y-114695501D01*
X105695131Y-114696260D01*
X105705299Y-114699650D01*
X105724055Y-114698317D01*
X105742821Y-114699651D01*
X105752991Y-114696260D01*
X105763680Y-114695501D01*
X105780501Y-114687090D01*
X105798345Y-114681142D01*
X105806441Y-114674119D01*
X105816027Y-114669327D01*
X105828350Y-114655118D01*
X105842559Y-114642795D01*
X105847351Y-114633209D01*
X105854374Y-114625113D01*
X105866362Y-114598262D01*
X106096459Y-113907971D01*
X106502631Y-113907971D01*
X106502631Y-114265114D01*
X106505513Y-114294378D01*
X106507576Y-114299358D01*
X106507958Y-114304733D01*
X106518467Y-114332196D01*
X106589896Y-114475053D01*
X106597823Y-114487646D01*
X106599339Y-114491306D01*
X106602720Y-114495425D01*
X106605561Y-114499939D01*
X106608554Y-114502535D01*
X106617994Y-114514037D01*
X106689423Y-114585466D01*
X106700927Y-114594907D01*
X106703522Y-114597899D01*
X106708031Y-114600737D01*
X106712154Y-114604121D01*
X106715815Y-114605637D01*
X106728407Y-114613564D01*
X106871265Y-114684992D01*
X106898728Y-114695502D01*
X106904103Y-114695883D01*
X106909082Y-114697946D01*
X106938346Y-114700828D01*
X107295489Y-114700828D01*
X107324753Y-114697946D01*
X107329731Y-114695883D01*
X107335107Y-114695502D01*
X107362571Y-114684992D01*
X107505428Y-114613564D01*
X107518023Y-114605635D01*
X107521682Y-114604120D01*
X107525799Y-114600740D01*
X107530314Y-114597899D01*
X107532910Y-114594904D01*
X107544413Y-114585465D01*
X107615841Y-114514036D01*
X107634495Y-114491306D01*
X107656892Y-114437233D01*
X107656891Y-114378707D01*
X107634494Y-114324635D01*
X107593108Y-114283250D01*
X107539036Y-114260853D01*
X107480510Y-114260854D01*
X107426438Y-114283251D01*
X107403707Y-114301906D01*
X107349490Y-114356122D01*
X107260079Y-114400828D01*
X106973756Y-114400828D01*
X106884342Y-114356121D01*
X106847338Y-114319117D01*
X106802631Y-114229703D01*
X106802631Y-113950136D01*
X108005514Y-113950136D01*
X108005514Y-114008664D01*
X108027912Y-114062736D01*
X108069296Y-114104120D01*
X108123368Y-114126518D01*
X108152632Y-114129400D01*
X108574060Y-114129400D01*
X108574060Y-114550828D01*
X108576942Y-114580092D01*
X108599340Y-114634164D01*
X108640724Y-114675548D01*
X108694796Y-114697946D01*
X108753324Y-114697946D01*
X108807396Y-114675548D01*
X108848780Y-114634164D01*
X108871178Y-114580092D01*
X108874060Y-114550828D01*
X108874060Y-114129400D01*
X109295489Y-114129400D01*
X109324753Y-114126518D01*
X109378825Y-114104120D01*
X109420209Y-114062736D01*
X109442607Y-114008664D01*
X109442607Y-113950136D01*
X109420209Y-113896064D01*
X109378825Y-113854680D01*
X109324753Y-113832282D01*
X109295489Y-113829400D01*
X108874060Y-113829400D01*
X108874060Y-113407971D01*
X108871178Y-113378707D01*
X108848780Y-113324635D01*
X108807396Y-113283251D01*
X108753324Y-113260853D01*
X108694796Y-113260853D01*
X108640724Y-113283251D01*
X108599340Y-113324635D01*
X108576942Y-113378707D01*
X108574060Y-113407971D01*
X108574060Y-113829400D01*
X108152632Y-113829400D01*
X108123368Y-113832282D01*
X108069296Y-113854680D01*
X108027912Y-113896064D01*
X108005514Y-113950136D01*
X106802631Y-113950136D01*
X106802631Y-113943381D01*
X106847338Y-113853967D01*
X106884342Y-113816963D01*
X106973756Y-113772257D01*
X107260079Y-113772257D01*
X107349490Y-113816962D01*
X107403707Y-113871179D01*
X107426438Y-113889834D01*
X107433416Y-113892724D01*
X107439262Y-113897507D01*
X107460253Y-113903840D01*
X107480510Y-113912231D01*
X107488062Y-113912231D01*
X107495294Y-113914413D01*
X107517110Y-113912231D01*
X107539036Y-113912232D01*
X107546014Y-113909341D01*
X107553531Y-113908590D01*
X107572850Y-113898225D01*
X107593108Y-113889835D01*
X107598450Y-113884492D01*
X107605106Y-113880922D01*
X107618986Y-113863956D01*
X107634494Y-113848450D01*
X107637384Y-113841470D01*
X107642167Y-113835626D01*
X107648501Y-113814631D01*
X107656891Y-113794378D01*
X107656891Y-113786828D01*
X107659074Y-113779594D01*
X107659030Y-113750188D01*
X107587602Y-113035903D01*
X107585464Y-113025238D01*
X107585464Y-113021564D01*
X107584036Y-113018118D01*
X107581822Y-113007071D01*
X107571457Y-112987749D01*
X107563066Y-112967492D01*
X107557725Y-112962151D01*
X107554155Y-112955496D01*
X107537187Y-112941613D01*
X107521682Y-112926108D01*
X107514702Y-112923216D01*
X107508858Y-112918435D01*
X107487869Y-112912101D01*
X107467610Y-112903710D01*
X107456398Y-112902605D01*
X107452826Y-112901528D01*
X107449168Y-112901893D01*
X107438346Y-112900828D01*
X106724060Y-112900828D01*
X106694796Y-112903710D01*
X106640724Y-112926108D01*
X106599340Y-112967492D01*
X106576942Y-113021564D01*
X106576942Y-113080092D01*
X106599340Y-113134164D01*
X106640724Y-113175548D01*
X106694796Y-113197946D01*
X106724060Y-113200828D01*
X107302597Y-113200828D01*
X107330238Y-113477237D01*
X107329731Y-113477201D01*
X107324753Y-113475139D01*
X107295489Y-113472257D01*
X106938346Y-113472257D01*
X106909082Y-113475139D01*
X106904103Y-113477201D01*
X106898728Y-113477583D01*
X106871265Y-113488093D01*
X106728407Y-113559521D01*
X106715815Y-113567447D01*
X106712154Y-113568964D01*
X106708031Y-113572347D01*
X106703522Y-113575186D01*
X106700927Y-113578177D01*
X106689423Y-113587619D01*
X106617994Y-113659048D01*
X106608554Y-113670549D01*
X106605561Y-113673146D01*
X106602720Y-113677659D01*
X106599339Y-113681779D01*
X106597823Y-113685438D01*
X106589896Y-113698032D01*
X106518467Y-113840889D01*
X106507958Y-113868352D01*
X106507576Y-113873726D01*
X106505513Y-113878707D01*
X106502631Y-113907971D01*
X106096459Y-113907971D01*
X106366363Y-113098262D01*
X106372883Y-113069588D01*
X106368733Y-113011208D01*
X106342559Y-112958861D01*
X106298345Y-112920514D01*
X106242821Y-112902005D01*
X106184441Y-112906155D01*
X106132093Y-112932328D01*
X106093746Y-112976543D01*
X106081758Y-113003394D01*
X105724060Y-114076486D01*
X105366362Y-113003394D01*
X105354374Y-112976543D01*
X105316027Y-112932329D01*
X105263680Y-112906155D01*
X105205299Y-112902006D01*
X105149775Y-112920514D01*
X105105561Y-112958861D01*
X105079387Y-113011208D01*
X105075238Y-113069589D01*
X104908571Y-113069589D01*
X104908571Y-112734161D01*
X109609274Y-112734161D01*
X109609274Y-114867495D01*
G37*
G36*
X109145489Y-111750828D02*
G01*
X108962689Y-111750828D01*
X108805086Y-111698294D01*
X108704481Y-111597688D01*
X108651300Y-111491328D01*
X108588346Y-111239507D01*
X108588346Y-111062148D01*
X108651300Y-110810327D01*
X108704481Y-110703967D01*
X108805087Y-110603361D01*
X108962689Y-110550828D01*
X109145489Y-110550828D01*
X109145489Y-111750828D01*
G37*
G36*
X109612156Y-112217495D02*
G01*
X105907393Y-112217495D01*
X105907393Y-110400828D01*
X106074060Y-110400828D01*
X106074060Y-111900828D01*
X106074801Y-111908353D01*
X106074426Y-111911305D01*
X106075468Y-111915125D01*
X106076942Y-111930092D01*
X106084577Y-111948524D01*
X106089826Y-111967769D01*
X106095680Y-111975328D01*
X106099340Y-111984164D01*
X106113447Y-111998271D01*
X106125661Y-112014043D01*
X106133963Y-112018787D01*
X106140724Y-112025548D01*
X106159154Y-112033182D01*
X106176477Y-112043081D01*
X106185962Y-112044286D01*
X106194796Y-112047946D01*
X106214746Y-112047946D01*
X106234537Y-112050462D01*
X106243762Y-112047946D01*
X106253324Y-112047946D01*
X106271756Y-112040310D01*
X106291001Y-112035062D01*
X106298560Y-112029207D01*
X106307396Y-112025548D01*
X106321503Y-112011440D01*
X106337275Y-111999227D01*
X106345980Y-111986963D01*
X106348780Y-111984164D01*
X106349918Y-111981416D01*
X106354296Y-111975249D01*
X106931203Y-110965663D01*
X106931203Y-111900828D01*
X106934085Y-111930092D01*
X106956483Y-111984164D01*
X106997867Y-112025548D01*
X107051939Y-112047946D01*
X107110467Y-112047946D01*
X107164539Y-112025548D01*
X107205923Y-111984164D01*
X107228321Y-111930092D01*
X107231203Y-111900828D01*
X107231203Y-110400828D01*
X107645489Y-110400828D01*
X107645489Y-111900828D01*
X107648371Y-111930092D01*
X107670769Y-111984164D01*
X107712153Y-112025548D01*
X107766225Y-112047946D01*
X107824753Y-112047946D01*
X107878825Y-112025548D01*
X107920209Y-111984164D01*
X107942607Y-111930092D01*
X107945489Y-111900828D01*
X107945489Y-111043685D01*
X108288346Y-111043685D01*
X108288346Y-111257971D01*
X108288848Y-111263074D01*
X108288523Y-111265262D01*
X108290142Y-111276212D01*
X108291228Y-111287235D01*
X108292075Y-111289279D01*
X108292825Y-111294351D01*
X108364253Y-111580065D01*
X108365024Y-111582223D01*
X108365101Y-111583304D01*
X108369759Y-111595478D01*
X108374146Y-111607756D01*
X108374790Y-111608626D01*
X108375610Y-111610767D01*
X108447039Y-111753624D01*
X108454966Y-111766217D01*
X108456482Y-111769877D01*
X108459863Y-111773996D01*
X108462704Y-111778510D01*
X108465697Y-111781106D01*
X108475137Y-111792608D01*
X108617994Y-111935466D01*
X108640724Y-111954121D01*
X108645703Y-111956183D01*
X108649775Y-111959715D01*
X108676626Y-111971703D01*
X108890912Y-112043131D01*
X108905424Y-112046430D01*
X108909082Y-112047946D01*
X108914384Y-112048468D01*
X108919586Y-112049651D01*
X108923540Y-112049369D01*
X108938346Y-112050828D01*
X109295489Y-112050828D01*
X109324753Y-112047946D01*
X109378825Y-112025548D01*
X109420209Y-111984164D01*
X109442607Y-111930092D01*
X109445489Y-111900828D01*
X109445489Y-110400828D01*
X109442607Y-110371564D01*
X109420209Y-110317492D01*
X109378825Y-110276108D01*
X109324753Y-110253710D01*
X109295489Y-110250828D01*
X108938346Y-110250828D01*
X108923534Y-110252286D01*
X108919585Y-110252006D01*
X108914390Y-110253187D01*
X108909082Y-110253710D01*
X108905420Y-110255226D01*
X108890911Y-110258526D01*
X108676626Y-110329955D01*
X108649775Y-110341943D01*
X108645705Y-110345472D01*
X108640724Y-110347536D01*
X108617994Y-110366191D01*
X108475137Y-110509048D01*
X108465697Y-110520549D01*
X108462704Y-110523146D01*
X108459863Y-110527659D01*
X108456482Y-110531779D01*
X108454966Y-110535438D01*
X108447039Y-110548032D01*
X108375610Y-110690889D01*
X108374790Y-110693029D01*
X108374146Y-110693900D01*
X108369759Y-110706177D01*
X108365101Y-110718352D01*
X108365024Y-110719432D01*
X108364253Y-110721591D01*
X108292825Y-111007305D01*
X108292075Y-111012376D01*
X108291228Y-111014421D01*
X108290142Y-111025443D01*
X108288523Y-111036394D01*
X108288848Y-111038581D01*
X108288346Y-111043685D01*
X107945489Y-111043685D01*
X107945489Y-110400828D01*
X107942607Y-110371564D01*
X107920209Y-110317492D01*
X107878825Y-110276108D01*
X107824753Y-110253710D01*
X107766225Y-110253710D01*
X107712153Y-110276108D01*
X107670769Y-110317492D01*
X107648371Y-110371564D01*
X107645489Y-110400828D01*
X107231203Y-110400828D01*
X107230461Y-110393301D01*
X107230837Y-110390350D01*
X107229794Y-110386528D01*
X107228321Y-110371564D01*
X107220685Y-110353131D01*
X107215437Y-110333887D01*
X107209582Y-110326327D01*
X107205923Y-110317492D01*
X107191815Y-110303384D01*
X107179602Y-110287613D01*
X107171299Y-110282868D01*
X107164539Y-110276108D01*
X107146108Y-110268473D01*
X107128786Y-110258575D01*
X107119300Y-110257369D01*
X107110467Y-110253710D01*
X107090517Y-110253710D01*
X107070726Y-110251194D01*
X107061501Y-110253710D01*
X107051939Y-110253710D01*
X107033510Y-110261343D01*
X107014262Y-110266593D01*
X107006700Y-110272449D01*
X106997867Y-110276108D01*
X106983761Y-110290213D01*
X106967988Y-110302429D01*
X106959282Y-110314692D01*
X106956483Y-110317492D01*
X106955344Y-110320239D01*
X106950967Y-110326407D01*
X106374060Y-111335994D01*
X106374060Y-110400828D01*
X106371178Y-110371564D01*
X106348780Y-110317492D01*
X106307396Y-110276108D01*
X106253324Y-110253710D01*
X106194796Y-110253710D01*
X106140724Y-110276108D01*
X106099340Y-110317492D01*
X106076942Y-110371564D01*
X106074060Y-110400828D01*
X105907393Y-110400828D01*
X105907393Y-110084161D01*
X109612156Y-110084161D01*
X109612156Y-112217495D01*
G37*
M02*
